<?xml version="1.0" encoding="UTF-8" standalone="no"?>
<svg
   xmlns:dc="http://purl.org/dc/elements/1.1/"
   xmlns:cc="http://creativecommons.org/ns#"
   xmlns:rdf="http://www.w3.org/1999/02/22-rdf-syntax-ns#"
   xmlns:svg="http://www.w3.org/2000/svg"
   xmlns="http://www.w3.org/2000/svg"
   xmlns:sodipodi="http://sodipodi.sourceforge.net/DTD/sodipodi-0.dtd"
   xmlns:inkscape="http://www.inkscape.org/namespaces/inkscape"
   version="1.1"
   viewBox="0 0 736 140"
   width="736pt"
   height="140pt"
   id="svg444"
   sodipodi:docname="Flow chart 2.svg"
   inkscape:version="0.92.2 5c3e80d, 2017-08-06">
  <sodipodi:namedview
     pagecolor="#ffffff"
     bordercolor="#666666"
     borderopacity="1"
     objecttolerance="10"
     gridtolerance="10"
     guidetolerance="10"
     inkscape:pageopacity="0"
     inkscape:pageshadow="2"
     inkscape:window-width="1095"
     inkscape:window-height="751"
     id="namedview446"
     showgrid="false"
     inkscape:snap-text-baseline="false"
     inkscape:zoom="5.2826087"
     inkscape:cx="190.11748"
     inkscape:cy="141.00227"
     inkscape:window-x="63"
     inkscape:window-y="22"
     inkscape:window-maximized="0"
     inkscape:current-layer="g440" />
  <metadata
     id="metadata255"> Produced by OmniGraffle 7.4.1 
    <dc:date>2017-08-10 00:28:29 +0000</dc:date>
<rdf:RDF>
  <cc:Work
     rdf:about="">
    <dc:format>image/svg+xml</dc:format>
    <dc:type
       rdf:resource="http://purl.org/dc/dcmitype/StillImage" />
  </cc:Work>
</rdf:RDF>
</metadata>
  <defs
     id="defs262">
    <marker
       orient="auto"
       overflow="visible"
       markerUnits="strokeWidth"
       id="TreehouseArrow_Marker"
       viewBox="-1 -5 10 10"
       markerWidth="10"
       markerHeight="10"
       color="#616161">
      <g
         id="g259">
        <path
           d="M 8 0 L 0 0 M 4 -4 L 8 0 L 4 4"
           fill="none"
           stroke="currentColor"
           stroke-width="1"
           id="path257" />
      </g>
    </marker>
  </defs>
  <g
     stroke="none"
     stroke-opacity="1"
     stroke-dasharray="none"
     fill="none"
     fill-opacity="1"
     id="g442">
    <title
       id="title264">Flow chart 2</title>
    <g
       id="g440">
      <title
         id="title266">Layer 1</title>
      <rect
         x="103.96976"
         y="12"
         width="528.0605"
         height="117"
         fill="#e1f6fe"
         id="rect268" />
      <path
         d="M 178.75504 55 L 237.71069 82 L 178.75504 109 L 119.7994 82 Z"
         fill="white"
         id="path270" />
      <path
         d="M 178.75504 55 L 237.71069 82 L 178.75504 109 L 119.7994 82 Z"
         stroke="#d7d7d7"
         stroke-linecap="round"
         stroke-linejoin="round"
         stroke-width="1"
         id="path272" />
      <rect
         x="274.6018"
         y="55"
         width="86.7621"
         height="54"
         fill="white"
         id="rect274" />
      <rect
         x="274.6018"
         y="55"
         width="86.7621"
         height="54"
         stroke="#dfdfdf"
         stroke-linecap="round"
         stroke-linejoin="round"
         stroke-width="1"
         id="rect276" />
      <rect
         x="401.81603"
         y="55"
         width="86.7621"
         height="54"
         fill="white"
         id="rect278" />
      <rect
         x="401.81603"
         y="55"
         width="86.7621"
         height="54"
         stroke="#dfdfdf"
         stroke-linecap="round"
         stroke-linejoin="round"
         stroke-width="1"
         id="rect280" />
      <rect
         x="529.03024"
         y="55"
         width="86.7621"
         height="54"
         fill="white"
         id="rect282" />
      <rect
         x="529.03024"
         y="55"
         width="86.7621"
         height="54"
         stroke="#dfdfdf"
         stroke-linecap="round"
         stroke-linejoin="round"
         stroke-width="1"
         id="rect284" />
      <path
         d="M 237.71069 82 L 248.36895 82 L 264.7018 82"
         marker-end="url(#TreehouseArrow_Marker)"
         stroke="#616161"
         stroke-linecap="round"
         stroke-linejoin="round"
         stroke-width="1"
         id="path286" />
      <path
         d="M 361.3639 82 L 381.58997 82 L 391.91603 82"
         marker-end="url(#TreehouseArrow_Marker)"
         stroke="#616161"
         stroke-linecap="round"
         stroke-linejoin="round"
         stroke-width="1"
         id="path288" />
      <path
         d="M 488.5781 82 L 508.8042 82 L 519.13024 82"
         marker-end="url(#TreehouseArrow_Marker)"
         stroke="#616161"
         stroke-linecap="round"
         stroke-linejoin="round"
         stroke-width="1"
         id="path290" />
      <path
         d="m 120.02445,33.74414 c -0.0879,0.751958 -0.3654,1.332193 -0.83252,1.740723 -0.46713,0.408531 -1.08805,0.612793 -1.8628,0.612793 -0.83984,0 -1.51285,-0.301104 -2.01904,-0.90332 -0.50619,-0.602216 -0.75928,-1.407873 -0.75928,-2.416992 V 32.09375 c 0,-0.66081 0.118,-1.24186 0.35401,-1.743164 0.236,-0.501306 0.57047,-0.886229 1.00341,-1.154786 0.43295,-0.268555 0.93425,-0.40283 1.50391,-0.40283 0.75521,0 1.36068,0.21077 1.81641,0.632323 0.45573,0.421552 0.72103,1.005042 0.7959,1.750487 h -0.94239 c -0.0814,-0.566408 -0.25797,-0.97656 -0.52978,-1.230467 -0.27181,-0.253908 -0.65186,-0.38086 -1.14014,-0.38086 -0.59896,0 -1.06852,0.221352 -1.40869,0.664063 -0.34017,0.44271 -0.51025,1.072587 -0.51025,1.889648 v 0.688476 c 0,0.77149 0.16113,1.38509 0.4834,1.84082 0.32226,0.455732 0.7731,0.683595 1.35253,0.683595 0.52084,0 0.92041,-0.118 1.19873,-0.354005 0.27833,-0.236003 0.46306,-0.64697 0.5542,-1.23291 z"
         id="path292"
         inkscape:connector-curvature="0"
         style="fill:#757575" />
      <path
         d="m 122.56486,33.30957 c 0,-0.51758 0.10173,-0.98307 0.30518,-1.396484 0.20345,-0.413414 0.48665,-0.732421 0.84961,-0.957031 0.36296,-0.224611 0.77718,-0.336915 1.24267,-0.336915 0.71941,0 1.30127,0.24902 1.74561,0.74707 0.44434,0.49805 0.6665,1.16048 0.6665,1.987306 v 0.06348 c 0,0.514326 -0.0985,0.975748 -0.29541,1.384278 -0.19694,0.40853 -0.47851,0.726724 -0.84472,0.95459 -0.36622,0.227865 -0.78695,0.341796 -1.26221,0.341796 -0.71615,0 -1.29638,-0.249021 -1.74072,-0.74707 -0.44434,-0.498049 -0.66651,-1.157223 -0.66651,-1.977539 z m 0.90821,0.107422 c 0,0.585941 0.1359,1.056314 0.40771,1.411133 0.27181,0.354819 0.63558,0.532225 1.09131,0.532225 0.45899,0 0.82357,-0.179847 1.09375,-0.53955 0.27018,-0.3597 0.40527,-0.86344 0.40527,-1.51123 0,-0.57943 -0.13753,-1.04899 -0.41259,-1.40869 -0.27507,-0.359703 -0.64046,-0.539552 -1.0962,-0.539552 -0.44596,0 -0.80566,0.177407 -1.0791,0.532227 -0.27344,0.354819 -0.41015,0.862625 -0.41015,1.523437 z"
         id="path294"
         inkscape:connector-curvature="0"
         style="fill:#757575" />
      <path
         d="m 131.56365,35.929626 -0.0141,-0.664559 c -0.41515,0.498456 -0.94816,0.740239 -1.59904,0.725356 -1.11625,-0.02552 -1.66484,-0.668108 -1.64581,-1.927775 l 0.0798,-3.490298 0.90309,0.02065 -0.0799,3.495181 c -0.006,0.38083 0.0751,0.664325 0.24185,0.850476 0.16669,0.186152 0.43065,0.283357 0.79188,0.291616 0.2929,0.0067 0.55177,-0.06552 0.77665,-0.216678 0.22486,-0.15115 0.40204,-0.352229 0.5315,-0.603241 l 0.0861,-3.763666 0.90309,0.02065 -0.12077,5.281823 z"
         id="path296"
         inkscape:connector-curvature="0"
         style="fill:#757575" />
      <path
         d="m 140.83206,36 v -7.109375 h 2.32422 c 0.77149,0 1.35172,0.159505 1.74072,0.478515 0.389,0.319013 0.5835,0.791013 0.5835,1.416016 0,0.332034 -0.0944,0.625814 -0.2832,0.881348 -0.1888,0.255536 -0.44596,0.453286 -0.77149,0.593262 0.38412,0.107422 0.68766,0.311684 0.91065,0.612794 0.22298,0.301107 0.33447,0.65999 0.33447,1.07666 0,0.638023 -0.2067,1.13932 -0.62012,1.503905 C 144.6374,35.81771 144.0531,36 143.29788,36 Z m 0.9375,-3.325195 V 35.2334 h 1.54785 c 0.4362,0 0.78044,-0.11312 1.03272,-0.339357 0.25227,-0.226238 0.37842,-0.537923 0.37842,-0.935059 0,-0.856124 -0.46549,-1.284179 -1.39649,-1.284179 z m 0,-0.751955 h 1.41602 c 0.41016,0 0.73812,-0.102536 0.98389,-0.307616 0.24576,-0.205079 0.36865,-0.483396 0.36865,-0.834961 0,-0.390627 -0.11393,-0.674641 -0.3418,-0.85205 -0.22787,-0.17741 -0.57454,-0.266113 -1.04004,-0.266113 h -1.38672 z"
         id="path310"
         inkscape:connector-curvature="0"
         style="fill:#757575" />
      <path
         d="m 150.17777,35.47754 c -0.35157,0.413413 -0.86751,0.620116 -1.54786,0.620116 -0.56315,0 -0.99201,-0.163572 -1.28661,-0.490722 -0.2946,-0.32715 -0.44353,-0.811358 -0.44678,-1.452637 v -3.4375 h 0.90332 v 3.413086 c 0,0.800787 0.32551,1.201172 0.97656,1.201172 0.6901,0 1.14909,-0.257159 1.37695,-0.771485 v -3.842773 h 0.90332 V 36 h -0.85937 z"
         id="path312"
         inkscape:connector-curvature="0"
         style="fill:#757575" />
      <path
         d="m 153.41019,36 h -0.90332 v -5.283203 h 0.90332 z m -0.97656,-6.68457 c 0,-0.146485 0.0447,-0.270182 0.13427,-0.371094 0.0895,-0.100912 0.22217,-0.151366 0.39795,-0.151366 0.17578,0 0.30925,0.05045 0.40039,0.151366 0.0911,0.100912 0.13672,0.224609 0.13672,0.371094 0,0.146485 -0.0456,0.268554 -0.13672,0.36621 -0.0911,0.09766 -0.22461,0.146485 -0.40039,0.146485 -0.17578,0 -0.30843,-0.04883 -0.39795,-0.146485 -0.0895,-0.09766 -0.13427,-0.219725 -0.13427,-0.36621 z"
         id="path314"
         inkscape:connector-curvature="0"
         style="fill:#757575" />
      <rect
         x="120.71757"
         y="28.5"
         width="0.90332031"
         height="7.5"
         id="rect316"
         style="fill:#757575" />
      <path
         d="m 133.06253,33.314453 c 0,-0.810551 0.19206,-1.4624 0.57617,-1.955566 0.38412,-0.493167 0.88704,-0.739747 1.5088,-0.739747 0.61849,0 1.10839,0.211587 1.46972,0.634766 V 28.5 h 0.90332 V 36 h -0.83008 l -0.0439,-0.566406 c -0.36133,0.44271 -0.86426,0.664062 -1.50879,0.664062 -0.61199,0 -1.11084,-0.250648 -1.49659,-0.751953 -0.38574,-0.501303 -0.57861,-1.155593 -0.57861,-1.962891 z m 0.90332,0.102539 c 0,0.598962 0.1237,1.067708 0.3711,1.40625 0.24739,0.338544 0.58919,0.507813 1.02539,0.507813 0.57292,0 0.99121,-0.257159 1.25488,-0.771485 v -2.426758 c -0.27018,-0.498049 -0.68522,-0.74707 -1.24512,-0.74707 -0.4427,0 -0.78776,0.170898 -1.03515,0.512695 -0.2474,0.341799 -0.3711,0.847979 -0.3711,1.518555 z"
         id="path318"
         inkscape:connector-curvature="0"
         style="fill:#757575" />
      <path
         d="M 286.07935 79 L 286.07935 70.46875 L 288.8684 70.46875 C 289.7942 70.46875 290.4905 70.660154 290.9573 71.04297 C 291.42408 71.42578 291.65748 71.99218 291.65748 72.74219 C 291.65748 73.14063 291.5442 73.49316 291.31763 73.799805 C 291.09107 74.10645 290.78248 74.34375 290.39185 74.51172 C 290.8528 74.64063 291.21705 74.88574 291.48463 75.24707 C 291.7522 75.6084 291.886 76.03906 291.886 76.53906 C 291.886 77.30469 291.63795 77.90625 291.14185 78.34375 C 290.64576 78.78125 289.9446 79 289.03834 79 Z M 287.20435 75.00977 L 287.20435 78.08008 L 289.06178 78.08008 C 289.5852 78.08008 289.9983 77.94434 290.30103 77.67285 C 290.60377 77.40137 290.75513 77.02735 290.75513 76.55078 C 290.75513 75.52343 290.19655 75.00977 289.07935 75.00977 Z M 287.20435 74.10742 L 288.90357 74.10742 C 289.39576 74.10742 289.7893 73.98438 290.08424 73.73828 C 290.37916 73.49219 290.52662 73.158205 290.52662 72.73633 C 290.52662 72.26758 290.3899 71.92676 290.11646 71.71387 C 289.84302 71.500975 289.427 71.39453 288.8684 71.39453 L 287.20435 71.39453 Z"
         fill="#212121"
         id="path324" />
      <path
         d="M 297.2942 78.37305 C 296.87232 78.86914 296.2532 79.11719 295.43678 79.11719 C 294.761 79.11719 294.24635 78.9209 293.89283 78.52832 C 293.5393 78.13574 293.3606 77.55469 293.3567 76.78516 L 293.3567 72.66016 L 294.44068 72.66016 L 294.44068 76.75586 C 294.44068 77.7168 294.8313 78.19727 295.61256 78.19727 C 296.4407 78.19727 296.99146 77.888675 297.2649 77.27148 L 297.2649 72.66016 L 298.3489 72.66016 L 298.3489 79 L 297.31763 79 Z"
         fill="#212121"
         id="path326" />
      <path
         d="M 301.1731 79 L 300.08912 79 L 300.08912 72.66016 L 301.1731 72.66016 Z M 300.00123 70.978516 C 300.00123 70.80273 300.05494 70.6543 300.16236 70.5332 C 300.2698 70.41211 300.42896 70.35156 300.6399 70.35156 C 300.85084 70.35156 301.011 70.41211 301.12037 70.5332 C 301.22974 70.6543 301.28443 70.80273 301.28443 70.978516 C 301.28443 71.1543 301.22974 71.30078 301.12037 71.41797 C 301.011 71.53516 300.85084 71.59375 300.6399 71.59375 C 300.42896 71.59375 300.2698 71.53516 300.16236 71.41797 C 300.05494 71.30078 300.00123 71.1543 300.00123 70.978516 Z"
         fill="#212121"
         id="path328" />
      <rect
         x="303.00123"
         y="70"
         width="1.0839844"
         height="9"
         fill="#212121"
         id="rect330" />
      <path
         d="M 305.5559 75.77734 C 305.5559 74.80468 305.7864 74.02246 306.24732 73.43066 C 306.70826 72.83886 307.31177 72.54297 308.05787 72.54297 C 308.80006 72.54297 309.38795 72.79687 309.82154 73.30469 L 309.82154 70 L 310.90553 70 L 310.90553 79 L 309.90943 79 L 309.8567 78.32031 C 309.4231 78.851565 308.8196 79.11719 308.04615 79.11719 C 307.31177 79.11719 306.71314 78.81641 306.25025 78.21484 C 305.78736 77.61328 305.5559 76.82813 305.5559 75.859375 Z M 306.6399 75.90039 C 306.6399 76.61914 306.78834 77.18164 307.0852 77.58789 C 307.3821 77.99414 307.79224 78.19727 308.3157 78.19727 C 309.0032 78.19727 309.50513 77.888675 309.82154 77.27148 L 309.82154 74.359375 C 309.49732 73.76172 308.99928 73.46289 308.3274 73.46289 C 307.79615 73.46289 307.3821 73.66797 307.0852 74.078125 C 306.78834 74.48828 306.6399 75.0957 306.6399 75.90039 Z"
         fill="#212121"
         id="path332" />
      <path
         d="M 315.7278 79 L 315.7278 70.46875 L 318.136 70.46875 C 318.8782 70.46875 319.53443 70.63281 320.10474 70.96094 C 320.67506 71.28906 321.1155 71.75586 321.42603 72.36133 C 321.7366 72.9668 321.8938 73.662105 321.8977 74.44727 L 321.8977 74.99219 C 321.8977 75.79688 321.74244 76.50195 321.4319 77.10742 C 321.12134 77.71289 320.678 78.17773 320.1018 78.50195 C 319.52564 78.82617 318.85475 78.99219 318.08912 79 Z M 316.8528 71.39453 L 316.8528 78.08008 L 318.0364 78.08008 C 318.90358 78.08008 319.57837 77.81055 320.0608 77.27148 C 320.54322 76.73242 320.78443 75.96485 320.78443 74.96875 L 320.78443 74.4707 C 320.78443 73.50195 320.5569 72.74903 320.1018 72.21191 C 319.64673 71.6748 319.00123 71.40234 318.1653 71.39453 Z"
         fill="#212121"
         id="path334" />
      <path
         d="M 323.1399 75.77148 C 323.1399 75.15039 323.26197 74.5918 323.5061 74.0957 C 323.75025 73.59961 324.0901 73.2168 324.52564 72.947266 C 324.9612 72.67773 325.45826 72.54297 326.01685 72.54297 C 326.88014 72.54297 327.57837 72.84179 328.11158 73.43945 C 328.6448 74.03711 328.9114 74.83203 328.9114 75.82422 L 328.9114 75.90039 C 328.9114 76.51758 328.79322 77.07129 328.5569 77.56152 C 328.32056 78.05176 327.98268 78.43359 327.54322 78.70703 C 327.10377 78.98047 326.5989 79.11719 326.02857 79.11719 C 325.1692 79.11719 324.4729 78.81836 323.9397 78.2207 C 323.4065 77.62304 323.1399 76.83204 323.1399 75.84766 Z M 324.22974 75.90039 C 324.22974 76.60352 324.39283 77.16797 324.719 77.59375 C 325.04518 78.01953 325.4817 78.23242 326.02857 78.23242 C 326.57936 78.23242 327.01685 78.0166 327.34107 77.58496 C 327.6653 77.15332 327.8274 76.54883 327.8274 75.77148 C 327.8274 75.07617 327.66236 74.5127 327.3323 74.081055 C 327.0022 73.64941 326.56373 73.43359 326.01685 73.43359 C 325.4817 73.43359 325.05006 73.64648 324.72193 74.07227 C 324.3938 74.49805 324.22974 75.10742 324.22974 75.90039 Z"
         fill="#212121"
         id="path336" />
      <path
         d="M 332.81373 78.23242 C 333.20045 78.23242 333.53834 78.11524 333.8274 77.88086 C 334.11646 77.64648 334.2766 77.35352 334.30787 77.00195 L 335.33326 77.00195 C 335.31373 77.36524 335.18873 77.71094 334.95826 78.03906 C 334.7278 78.36719 334.42018 78.628905 334.0354 78.82422 C 333.65064 79.01953 333.2434 79.11719 332.81373 79.11719 C 331.95044 79.11719 331.26393 78.8291 330.75416 78.25293 C 330.2444 77.676755 329.9895 76.88868 329.9895 75.88867 L 329.9895 75.70703 C 329.9895 75.08984 330.1028 74.54102 330.32935 74.06055 C 330.5559 73.58008 330.8811 73.20703 331.30494 72.94141 C 331.72877 72.67578 332.22974 72.54297 332.80787 72.54297 C 333.5188 72.54297 334.10962 72.75586 334.58033 73.18164 C 335.05104 73.60742 335.302 74.16015 335.33326 74.83984 L 334.30787 74.83984 C 334.2766 74.429685 334.12135 74.092775 333.84205 73.8291 C 333.56275 73.56543 333.21803 73.43359 332.80787 73.43359 C 332.2571 73.43359 331.83033 73.63183 331.5276 74.02832 C 331.22486 74.42481 331.0735 74.99804 331.0735 75.74805 L 331.0735 75.953125 C 331.0735 76.6836 331.2239 77.24609 331.52467 77.640625 C 331.82545 78.03516 332.25513 78.23242 332.81373 78.23242 Z"
         fill="#212121"
         id="path338" />
      <path
         d="M 338.32154 76.06445 L 337.64185 76.77344 L 337.64185 79 L 336.55787 79 L 336.55787 70 L 337.64185 70 L 337.64185 75.44336 L 338.22193 74.74609 L 340.19654 72.66016 L 341.5149 72.66016 L 339.0481 75.30859 L 341.802 79 L 340.53053 79 Z"
         fill="#212121"
         id="path340" />
      <path
         d="M 345.1477 79.11719 C 344.28833 79.11719 343.58912 78.83496 343.05006 78.27051 C 342.511 77.70605 342.24146 76.95118 342.24146 76.00586 L 342.24146 75.80664 C 342.24146 75.17773 342.36158 74.61621 342.6018 74.12207 C 342.84205 73.62793 343.178 73.24121 343.60963 72.96191 C 344.04127 72.68262 344.50904 72.54297 345.01295 72.54297 C 345.83717 72.54297 346.4778 72.81445 346.93482 73.35742 C 347.39186 73.90039 347.62037 74.67773 347.62037 75.68945 L 347.62037 76.140625 L 343.32545 76.140625 C 343.34107 76.76563 343.5237 77.27051 343.8733 77.65527 C 344.2229 78.04004 344.66724 78.23242 345.2063 78.23242 C 345.58912 78.23242 345.91334 78.1543 346.17896 77.99805 C 346.4446 77.8418 346.677 77.63477 346.87623 77.37695 L 347.53834 77.89258 C 347.0071 78.70899 346.2102 79.11719 345.1477 79.11719 Z M 345.01295 73.43359 C 344.57545 73.43359 344.20826 73.59277 343.9114 73.91113 C 343.6145 74.22949 343.4309 74.67578 343.3606 75.25 L 346.5364 75.25 L 346.5364 75.16797 C 346.50513 74.617185 346.3567 74.19043 346.09107 73.887695 C 345.82545 73.58496 345.46607 73.43359 345.01295 73.43359 Z"
         fill="#212121"
         id="path342" />
      <path
         d="M 351.93873 73.63281 C 351.77467 73.60547 351.59693 73.5918 351.40553 73.5918 C 350.6946 73.5918 350.21217 73.89453 349.95826 74.5 L 349.95826 79 L 348.87428 79 L 348.87428 72.66016 L 349.92896 72.66016 L 349.94654 73.39258 C 350.302 72.82617 350.8059 72.54297 351.45826 72.54297 C 351.6692 72.54297 351.82935 72.57031 351.93873 72.625 Z"
         fill="#212121"
         id="path344" />
      <rect
         x="302.97486"
         y="84.46875"
         width="1.125"
         height="8.53125"
         fill="#212121"
         id="rect346" />
      <path
         d="M 307.0061 86.66016 L 307.0354 87.36328 C 307.50025 86.8164 308.1272 86.54297 308.91627 86.54297 C 309.803 86.54297 310.4065 86.88281 310.7268 87.5625 C 310.93775 87.25781 311.21216 87.01172 311.55006 86.82422 C 311.88795 86.63672 312.28736 86.54297 312.7483 86.54297 C 314.13893 86.54297 314.84596 87.27929 314.8694 88.75195 L 314.8694 93 L 313.7854 93 L 313.7854 88.81641 C 313.7854 88.36328 313.6819 88.02442 313.47486 87.7998 C 313.26783 87.57519 312.92018 87.46289 312.4319 87.46289 C 312.02955 87.46289 311.69557 87.58301 311.42994 87.82324 C 311.1643 88.06348 311.01 88.38672 310.96705 88.79297 L 310.96705 93 L 309.8772 93 L 309.8772 88.8457 C 309.8772 87.92382 309.42604 87.46289 308.5237 87.46289 C 307.81275 87.46289 307.32643 87.76562 307.0647 88.37109 L 307.0647 93 L 305.98072 93 L 305.98072 86.66016 Z"
         fill="#212121"
         id="path348" />
      <path
         d="M 320.41822 93 C 320.35572 92.875 320.30494 92.65235 320.26588 92.33203 C 319.76197 92.85547 319.1604 93.11719 318.4612 93.11719 C 317.8362 93.11719 317.3235 92.94043 316.9231 92.58691 C 316.5227 92.2334 316.3225 91.78516 316.3225 91.24219 C 316.3225 90.58203 316.5735 90.06934 317.07545 89.7041 C 317.5774 89.33887 318.28345 89.15625 319.1936 89.15625 L 320.2483 89.15625 L 320.2483 88.6582 C 320.2483 88.2793 320.135 87.97754 319.90846 87.75293 C 319.6819 87.52832 319.3479 87.41602 318.9065 87.41602 C 318.5198 87.41602 318.19557 87.51367 317.93385 87.70898 C 317.67213 87.9043 317.54127 88.14062 317.54127 88.41797 L 316.45142 88.41797 C 316.45142 88.10156 316.56373 87.7959 316.78834 87.50098 C 317.01295 87.20605 317.31763 86.97266 317.7024 86.80078 C 318.08717 86.62891 318.51 86.54297 318.97096 86.54297 C 319.70143 86.54297 320.2737 86.72558 320.68775 87.09082 C 321.1018 87.45606 321.31666 87.95898 321.3323 88.59961 L 321.3323 91.51758 C 321.3323 92.09961 321.4065 92.5625 321.55494 92.90625 L 321.55494 93 Z M 318.6194 92.17383 C 318.95924 92.17383 319.2815 92.08594 319.5862 91.91016 C 319.89088 91.73437 320.11158 91.50586 320.2483 91.22461 L 320.2483 89.92383 L 319.3987 89.92383 C 318.07056 89.92383 317.4065 90.3125 317.4065 91.08984 C 317.4065 91.42969 317.5198 91.69531 317.74635 91.88672 C 317.9729 92.07813 318.26392 92.17383 318.6194 92.17383 Z"
         fill="#212121"
         id="path350" />
      <path
         d="M 322.7737 89.77734 C 322.7737 88.78906 323.0022 88.00293 323.45924 87.41895 C 323.91627 86.83496 324.52173 86.54297 325.27564 86.54297 C 326.0491 86.54297 326.6526 86.8164 327.0862 87.36328 L 327.13892 86.66016 L 328.12916 86.66016 L 328.12916 92.84766 C 328.12916 93.66797 327.886 94.31445 327.39967 94.78711 C 326.91334 95.25977 326.26002 95.49609 325.4397 95.49609 C 324.98267 95.49609 324.5354 95.39844 324.0979 95.20312 C 323.6604 95.00781 323.32643 94.74024 323.09596 94.40039 L 323.65846 93.75 C 324.1233 94.32422 324.69165 94.61133 325.36353 94.61133 C 325.89088 94.61133 326.302 94.46289 326.59693 94.16602 C 326.89186 93.86914 327.0393 93.45117 327.0393 92.91211 L 327.0393 92.36719 C 326.6057 92.86719 326.01393 93.11719 325.26392 93.11719 C 324.52173 93.11719 323.92115 92.81836 323.46217 92.2207 C 323.00318 91.62304 322.7737 90.8086 322.7737 89.77734 Z M 323.86353 89.90039 C 323.86353 90.61524 324.01 91.17676 324.303 91.58496 C 324.59596 91.99317 325.0061 92.19727 325.53346 92.19727 C 326.21705 92.19727 326.719 91.88672 327.0393 91.26562 L 327.0393 88.37109 C 326.7073 87.76562 326.20924 87.46289 325.54517 87.46289 C 325.01783 87.46289 324.60572 87.66797 324.30885 88.07812 C 324.01197 88.48828 323.86353 89.0957 323.86353 89.90039 Z"
         fill="#212121"
         id="path352" />
      <path
         d="M 332.3948 93.11719 C 331.5354 93.11719 330.8362 92.83496 330.29713 92.27051 C 329.75806 91.70605 329.48853 90.95118 329.48853 90.00586 L 329.48853 89.80664 C 329.48853 89.17773 329.60865 88.61621 329.8489 88.12207 C 330.08912 87.62793 330.42505 87.24121 330.8567 86.96191 C 331.28834 86.68262 331.7561 86.54297 332.26 86.54297 C 333.08424 86.54297 333.72486 86.81445 334.1819 87.35742 C 334.63893 87.90039 334.86744 88.67773 334.86744 89.68945 L 334.86744 90.14063 L 330.5725 90.14063 C 330.58814 90.76563 330.77076 91.27051 331.12037 91.65527 C 331.47 92.04004 331.9143 92.23242 332.45338 92.23242 C 332.8362 92.23242 333.1604 92.1543 333.42603 91.99805 C 333.69166 91.8418 333.92408 91.63477 334.1233 91.37695 L 334.7854 91.89258 C 334.25416 92.70899 333.4573 93.11719 332.3948 93.11719 Z M 332.26 87.43359 C 331.8225 87.43359 331.45533 87.59277 331.15846 87.91113 C 330.86158 88.22949 330.678 88.67578 330.60767 89.25 L 333.78346 89.25 L 333.78346 89.16797 C 333.7522 88.61718 333.60377 88.19043 333.33814 87.8877 C 333.0725 87.58496 332.71314 87.43359 332.26 87.43359 Z"
         fill="#212121"
         id="path354" />
      <path
         d="M 150.12165 78.46 L 150.12165 69.92875 L 152.52986 69.92875 C 153.27205 69.92875 153.9283 70.09281 154.4986 70.42094 C 155.06892 70.74906 155.50935 71.21586 155.8199 71.82133 C 156.13044 72.4268 156.28767 73.122105 156.29158 73.90727 L 156.29158 74.45219 C 156.29158 75.25688 156.1363 75.96195 155.82575 76.56742 C 155.5152 77.17289 155.07185 77.63773 154.49568 77.96195 C 153.9195 78.28617 153.24861 78.45219 152.48298 78.46 Z M 151.24665 70.85453 L 151.24665 77.54008 L 152.43025 77.54008 C 153.29744 77.54008 153.97224 77.27055 154.45466 76.73148 C 154.93709 76.19242 155.1783 75.42485 155.1783 74.42875 L 155.1783 73.9307 C 155.1783 72.96195 154.95076 72.20903 154.49568 71.67191 C 154.0406 71.1348 153.3951 70.86234 152.55915 70.85453 Z"
         fill="black"
         id="path356" />
      <path
         d="M 160.45173 78.57719 C 159.59235 78.57719 158.89314 78.29496 158.35408 77.73051 C 157.81501 77.16605 157.54548 76.41118 157.54548 75.46586 L 157.54548 75.26664 C 157.54548 74.63773 157.6656 74.07621 157.90583 73.58207 C 158.14607 73.08793 158.482 72.70121 158.91365 72.42191 C 159.34529 72.14262 159.81306 72.00297 160.31697 72.00297 C 161.14119 72.00297 161.7818 72.27445 162.23884 72.81742 C 162.69587 73.36039 162.92439 74.13773 162.92439 75.14945 L 162.92439 75.600625 L 158.62947 75.600625 C 158.6451 76.22563 158.8277 76.73051 159.17732 77.11527 C 159.52693 77.50004 159.97126 77.69242 160.51033 77.69242 C 160.89314 77.69242 161.21736 77.6143 161.48298 77.45805 C 161.7486 77.3018 161.98103 77.09477 162.18025 76.83695 L 162.84236 77.35258 C 162.3111 78.16899 161.51424 78.57719 160.45173 78.57719 Z M 160.31697 72.89359 C 159.87946 72.89359 159.51228 73.05277 159.2154 73.37113 C 158.91853 73.68949 158.73493 74.13578 158.66462 74.71 L 161.8404 74.71 L 161.8404 74.62797 C 161.80915 74.077185 161.66072 73.65043 161.3951 73.347695 C 161.12946 73.04496 160.7701 72.89359 160.31697 72.89359 Z"
         fill="black"
         id="path358" />
      <path
         d="M 165.649 70.585 L 165.649 72.12016 L 166.8326 72.12016 L 166.8326 72.95805 L 165.649 72.95805 L 165.649 76.88969 C 165.649 77.143595 165.70173 77.33402 165.8072 77.46098 C 165.91267 77.58793 166.09236 77.65141 166.34626 77.65141 C 166.47126 77.65141 166.64314 77.62797 166.86189 77.58109 L 166.86189 78.46 C 166.57673 78.53813 166.29939 78.57719 166.02986 78.57719 C 165.54548 78.57719 165.18025 78.4307 164.93415 78.13773 C 164.68806 77.84476 164.56501 77.42875 164.56501 76.88969 L 164.56501 72.95805 L 163.41072 72.95805 L 163.41072 72.12016 L 164.56501 72.12016 L 164.56501 70.585 Z"
         fill="black"
         id="path360" />
      <path
         d="M 170.72908 78.57719 C 169.8697 78.57719 169.17048 78.29496 168.63142 77.73051 C 168.09235 77.16605 167.82283 76.41118 167.82283 75.46586 L 167.82283 75.26664 C 167.82283 74.63773 167.94294 74.07621 168.18318 73.58207 C 168.42341 73.08793 168.75935 72.70121 169.19099 72.42191 C 169.62263 72.14262 170.0904 72.00297 170.5943 72.00297 C 171.41853 72.00297 172.05915 72.27445 172.51618 72.81742 C 172.97322 73.36039 173.20173 74.13773 173.20173 75.14945 L 173.20173 75.600625 L 168.9068 75.600625 C 168.92243 76.22563 169.10505 76.73051 169.45466 77.11527 C 169.80427 77.50004 170.2486 77.69242 170.78767 77.69242 C 171.17048 77.69242 171.4947 77.6143 171.76033 77.45805 C 172.02595 77.3018 172.25837 77.09477 172.4576 76.83695 L 173.1197 77.35258 C 172.58845 78.16899 171.79158 78.57719 170.72908 78.57719 Z M 170.5943 72.89359 C 170.1568 72.89359 169.78962 73.05277 169.49275 73.37113 C 169.19587 73.68949 169.01228 74.13578 168.94197 74.71 L 172.11775 74.71 L 172.11775 74.62797 C 172.0865 74.077185 171.93806 73.65043 171.67243 73.347695 C 171.4068 73.04496 171.04744 72.89359 170.5943 72.89359 Z"
         fill="black"
         id="path362" />
      <path
         d="M 176.9986 77.69242 C 177.38533 77.69242 177.72321 77.57524 178.01228 77.34086 C 178.30134 77.10648 178.4615 76.81352 178.49275 76.46195 L 179.51814 76.46195 C 179.4986 76.82524 179.3736 77.17094 179.14314 77.49906 C 178.91267 77.82719 178.60505 78.088905 178.22029 78.28422 C 177.83552 78.47953 177.4283 78.57719 176.9986 78.57719 C 176.13532 78.57719 175.4488 78.2891 174.93904 77.71293 C 174.42927 77.136755 174.17439 76.34868 174.17439 75.34867 L 174.17439 75.16703 C 174.17439 74.54984 174.28767 74.00102 174.51423 73.52055 C 174.7408 73.04008 175.06599 72.66703 175.48982 72.40141 C 175.91365 72.13578 176.41462 72.00297 176.99275 72.00297 C 177.70369 72.00297 178.2945 72.21586 178.7652 72.64164 C 179.23591 73.06742 179.48689 73.62015 179.51814 74.29984 L 178.49275 74.29984 C 178.4615 73.889685 178.30622 73.552775 178.02693 73.2891 C 177.74763 73.02543 177.4029 72.89359 176.99275 72.89359 C 176.44196 72.89359 176.0152 73.09183 175.71247 73.48832 C 175.40974 73.88481 175.25837 74.45804 175.25837 75.20805 L 175.25837 75.413125 C 175.25837 76.1436 175.40876 76.70609 175.70954 77.100625 C 176.01033 77.49516 176.44 77.69242 176.9986 77.69242 Z"
         fill="black"
         id="path364" />
      <path
         d="M 182.2076 70.585 L 182.2076 72.12016 L 183.39118 72.12016 L 183.39118 72.95805 L 182.2076 72.95805 L 182.2076 76.88969 C 182.2076 77.143595 182.26032 77.33402 182.3658 77.46098 C 182.47126 77.58793 182.65095 77.65141 182.90486 77.65141 C 183.02986 77.65141 183.20173 77.62797 183.42048 77.58109 L 183.42048 78.46 C 183.13532 78.53813 182.85798 78.57719 182.58845 78.57719 C 182.10407 78.57719 181.73884 78.4307 181.49275 78.13773 C 181.24665 77.84476 181.1236 77.42875 181.1236 76.88969 L 181.1236 72.95805 L 179.9693 72.95805 L 179.9693 72.12016 L 181.1236 72.12016 L 181.1236 70.585 Z"
         fill="black"
         id="path366" />
      <path
         d="M 194.35408 78.46 L 193.22322 78.46 L 188.9283 71.88578 L 188.9283 78.46 L 187.79743 78.46 L 187.79743 69.92875 L 188.9283 69.92875 L 193.23493 76.53227 L 193.23493 69.92875 L 194.35408 69.92875 Z"
         fill="black"
         id="path368" />
      <path
         d="M 198.81306 78.57719 C 197.95368 78.57719 197.25447 78.29496 196.7154 77.73051 C 196.17634 77.16605 195.9068 76.41118 195.9068 75.46586 L 195.9068 75.26664 C 195.9068 74.63773 196.02693 74.07621 196.26716 73.58207 C 196.5074 73.08793 196.84333 72.70121 197.27497 72.42191 C 197.70662 72.14262 198.17439 72.00297 198.6783 72.00297 C 199.50252 72.00297 200.14314 72.27445 200.60017 72.81742 C 201.0572 73.36039 201.28572 74.13773 201.28572 75.14945 L 201.28572 75.600625 L 196.9908 75.600625 C 197.00642 76.22563 197.18903 76.73051 197.53865 77.11527 C 197.88826 77.50004 198.33259 77.69242 198.87165 77.69242 C 199.25447 77.69242 199.57868 77.6143 199.8443 77.45805 C 200.10994 77.3018 200.34236 77.09477 200.54158 76.83695 L 201.20368 77.35258 C 200.67243 78.16899 199.87556 78.57719 198.81306 78.57719 Z M 198.6783 72.89359 C 198.2408 72.89359 197.8736 73.05277 197.57673 73.37113 C 197.27985 73.68949 197.09626 74.13578 197.02595 74.71 L 200.20173 74.71 L 200.20173 74.62797 C 200.17048 74.077185 200.02205 73.65043 199.75642 73.347695 C 199.4908 73.04496 199.13142 72.89359 198.6783 72.89359 Z"
         fill="black"
         id="path370" />
      <path
         d="M 208.1529 76.96586 L 209.37165 72.12016 L 210.45564 72.12016 L 208.60993 78.46 L 207.73103 78.46 L 206.19001 73.65531 L 204.69001 78.46 L 203.8111 78.46 L 201.97126 72.12016 L 203.04939 72.12016 L 204.29743 76.86625 L 205.774 72.12016 L 206.64704 72.12016 Z"
         fill="black"
         id="path372" />
      <path
         d="M 168.67243 91.34086 C 168.38337 91.75492 167.98005 92.06449 167.46247 92.26957 C 166.9449 92.47465 166.34236 92.57719 165.65486 92.57719 C 164.95954 92.57719 164.34236 92.4141 163.8033 92.08793 C 163.26423 91.76176 162.84724 91.29789 162.55232 90.69633 C 162.2574 90.09476 162.10603 89.3975 162.09822 88.60453 L 162.09822 87.86039 C 162.09822 86.57523 162.39802 85.57914 162.99763 84.87211 C 163.59724 84.16507 164.44 83.81156 165.52595 83.81156 C 166.41658 83.81156 167.13337 84.0391 167.67634 84.49418 C 168.21931 84.94926 168.55134 85.59476 168.67243 86.4307 L 167.54743 86.4307 C 167.3365 85.30179 166.66463 84.73734 165.5318 84.73734 C 164.7779 84.73734 164.20662 85.00199 163.81794 85.53129 C 163.42927 86.06059 163.23298 86.82718 163.22908 87.83109 L 163.22908 88.52836 C 163.22908 89.4854 163.44782 90.24613 163.88533 90.81059 C 164.32283 91.37504 164.91462 91.65727 165.66072 91.65727 C 166.0826 91.65727 166.45173 91.61039 166.76814 91.51664 C 167.08455 91.42289 167.34626 91.26469 167.5533 91.04203 L 167.5533 89.12602 L 165.57868 89.12602 L 165.57868 88.21195 L 168.67243 88.21195 Z"
         fill="black"
         id="path374" />
      <path
         d="M 171.55525 92.46 L 170.47126 92.46 L 170.47126 86.12016 L 171.55525 86.12016 Z M 170.38337 84.43852 C 170.38337 84.26273 170.43708 84.1143 170.5445 83.9932 C 170.65193 83.87211 170.8111 83.81156 171.02204 83.81156 C 171.23298 83.81156 171.39314 83.87211 171.50251 83.9932 C 171.61189 84.1143 171.66658 84.26273 171.66658 84.43852 C 171.66658 84.6143 171.61189 84.76078 171.50251 84.87797 C 171.39314 84.99516 171.23298 85.05375 171.02204 85.05375 C 170.8111 85.05375 170.65193 84.99516 170.5445 84.87797 C 170.43708 84.76078 170.38337 84.6143 170.38337 84.43852 Z"
         fill="black"
         id="path376" />
      <path
         d="M 174.76033 84.585 L 174.76033 86.12016 L 175.94392 86.12016 L 175.94392 86.95805 L 174.76033 86.95805 L 174.76033 90.88969 C 174.76033 91.1436 174.81306 91.33402 174.91853 91.46098 C 175.024 91.58793 175.20368 91.65141 175.4576 91.65141 C 175.5826 91.65141 175.75446 91.62797 175.97322 91.58109 L 175.97322 92.46 C 175.68806 92.53813 175.41072 92.57719 175.14118 92.57719 C 174.6568 92.57719 174.29158 92.4307 174.04548 92.13773 C 173.79939 91.84476 173.67634 91.42875 173.67634 90.88969 L 173.67634 86.95805 L 172.52204 86.95805 L 172.52204 86.12016 L 173.67634 86.12016 L 173.67634 84.585 Z"
         fill="black"
         id="path378" />
      <path
         d="M 185.90486 84.85453 L 183.16267 84.85453 L 183.16267 92.46 L 182.04353 92.46 L 182.04353 84.85453 L 179.3072 84.85453 L 179.3072 83.92875 L 185.90486 83.92875 Z"
         fill="black"
         id="path380" />
      <path
         d="M 189.95954 92.46 C 189.89704 92.335 189.84626 92.11235 189.8072 91.79203 C 189.3033 92.31547 188.70173 92.57719 188.00251 92.57719 C 187.3775 92.57719 186.86482 92.40043 186.46443 92.04691 C 186.06403 91.6934 185.86384 91.24516 185.86384 90.70219 C 185.86384 90.04203 186.11481 89.52934 186.61677 89.1641 C 187.11873 88.79887 187.82477 88.61625 188.73493 88.61625 L 189.78962 88.61625 L 189.78962 88.1182 C 189.78962 87.7393 189.67634 87.43754 189.44978 87.21293 C 189.22321 86.98832 188.88923 86.87602 188.44783 86.87602 C 188.0611 86.87602 187.7369 86.97367 187.47517 87.16898 C 187.21345 87.3643 187.0826 87.60062 187.0826 87.87797 L 185.99275 87.87797 C 185.99275 87.56156 186.10505 87.2559 186.32966 86.96098 C 186.55427 86.66605 186.85896 86.43266 187.24372 86.26078 C 187.6285 86.08891 188.05134 86.00297 188.51228 86.00297 C 189.24275 86.00297 189.815 86.18558 190.22908 86.55082 C 190.64314 86.91606 190.85798 87.41898 190.8736 88.05961 L 190.8736 90.97758 C 190.8736 91.55961 190.94782 92.0225 191.09626 92.36625 L 191.09626 92.46 Z M 188.16072 91.63383 C 188.50056 91.63383 188.82282 91.54594 189.12751 91.37016 C 189.4322 91.19437 189.6529 90.96586 189.78962 90.68461 L 189.78962 89.38383 L 188.94001 89.38383 C 187.61188 89.38383 186.94783 89.7725 186.94783 90.54984 C 186.94783 90.88969 187.0611 91.15531 187.28767 91.34672 C 187.51423 91.53813 187.80525 91.63383 188.16072 91.63383 Z"
         fill="black"
         id="path382" />
      <path
         d="M 192.31501 89.23734 C 192.31501 88.24906 192.54353 87.46293 193.00056 86.87895 C 193.4576 86.29496 194.06306 86.00297 194.81697 86.00297 C 195.5904 86.00297 196.19392 86.2764 196.62751 86.82328 L 196.68025 86.12016 L 197.67048 86.12016 L 197.67048 92.30766 C 197.67048 93.12797 197.42732 93.77445 196.941 94.24711 C 196.45466 94.71977 195.80134 94.95609 194.98103 94.95609 C 194.524 94.95609 194.07673 94.85844 193.63923 94.66312 C 193.20173 94.46781 192.86775 94.20024 192.63728 93.86039 L 193.19978 93.21 C 193.66462 93.78422 194.23298 94.07133 194.90486 94.07133 C 195.4322 94.07133 195.84333 93.92289 196.13825 93.62602 C 196.43318 93.32914 196.58064 92.91117 196.58064 92.37211 L 196.58064 91.82719 C 196.14704 92.32719 195.55525 92.57719 194.80525 92.57719 C 194.06306 92.57719 193.46248 92.27836 193.0035 91.6807 C 192.5445 91.08304 192.31501 90.2686 192.31501 89.23734 Z M 193.40486 89.36039 C 193.40486 90.07524 193.55134 90.63676 193.8443 91.04496 C 194.13728 91.45317 194.54743 91.65727 195.07478 91.65727 C 195.75838 91.65727 196.26032 91.34672 196.58064 90.72562 L 196.58064 87.83109 C 196.2486 87.22562 195.75056 86.92289 195.0865 86.92289 C 194.55915 86.92289 194.14705 87.12797 193.85017 87.53812 C 193.5533 87.94828 193.40486 88.5557 193.40486 89.36039 Z"
         fill="black"
         id="path384" />
      <path
         d="M 427.52013 75.54883 L 425.5162 75.54883 L 425.5162 79 L 424.38536 79 L 424.38536 70.46875 L 427.2096 70.46875 C 428.1705 70.46875 428.9098 70.6875 429.42736 71.125 C 429.94494 71.5625 430.2037 72.199215 430.2037 73.03516 C 430.2037 73.56641 430.06017 74.029295 429.77306 74.42383 C 429.48595 74.81836 429.08654 75.11328 428.5748 75.30859 L 430.5787 78.92969 L 430.5787 79 L 429.3717 79 Z M 425.5162 74.62891 L 427.24474 74.62891 C 427.80334 74.62891 428.24767 74.48438 428.57775 74.19531 C 428.90783 73.90625 429.07286 73.51953 429.07286 73.03516 C 429.07286 72.50781 428.91564 72.10352 428.6012 71.822266 C 428.28673 71.54101 427.83263 71.39844 427.2389 71.39453 L 425.5162 71.39453 Z"
         fill="#212121"
         id="path386" />
      <path
         d="M 435.52404 78.37305 C 435.10216 78.86914 434.483 79.11719 433.6666 79.11719 C 432.99083 79.11719 432.4762 78.9209 432.12267 78.52832 C 431.76915 78.13574 431.59044 77.55469 431.58654 76.78516 L 431.58654 72.66016 L 432.6705 72.66016 L 432.6705 76.75586 C 432.6705 77.7168 433.06114 78.19727 433.8424 78.19727 C 434.6705 78.19727 435.2213 77.888675 435.49474 77.27148 L 435.49474 72.66016 L 436.5787 72.66016 L 436.5787 79 L 435.54747 79 Z"
         fill="#212121"
         id="path388" />
      <path
         d="M 439.2506 72.66016 L 439.28575 73.45703 C 439.77013 72.84765 440.40294 72.54297 441.1842 72.54297 C 442.52404 72.54297 443.1998 73.29882 443.21154 74.81055 L 443.21154 79 L 442.12755 79 L 442.12755 74.80469 C 442.12365 74.34765 442.01915 74.00977 441.8141 73.79102 C 441.609 73.572265 441.28966 73.46289 440.85607 73.46289 C 440.5045 73.46289 440.1959 73.55664 439.9303 73.74414 C 439.66466 73.93164 439.45763 74.17773 439.3092 74.48242 L 439.3092 79 L 438.2252 79 L 438.2252 72.66016 Z"
         fill="#212121"
         id="path390" />
      <path
         d="M 453.9928 70.46875 L 453.9928 76.26953 C 453.9889 77.07422 453.73595 77.73242 453.234 78.24414 C 452.73204 78.75586 452.0514 79.04297 451.192 79.10547 L 450.8932 79.11719 C 449.9596 79.11719 449.21545 78.86524 448.66075 78.36133 C 448.10606 77.85742 447.8248 77.16407 447.817 76.28125 L 447.817 70.46875 L 448.9303 70.46875 L 448.9303 76.24609 C 448.9303 76.86328 449.1002 77.34277 449.44005 77.68457 C 449.7799 78.02637 450.26427 78.19727 450.8932 78.19727 C 451.5299 78.19727 452.0172 78.02735 452.3551 77.6875 C 452.693 77.34765 452.8619 76.86914 452.8619 76.25195 L 452.8619 70.46875 Z"
         fill="#212121"
         id="path392" />
      <path
         d="M 456.62365 72.66016 L 456.6588 73.45703 C 457.1432 72.84765 457.776 72.54297 458.55724 72.54297 C 459.8971 72.54297 460.57286 73.29882 460.5846 74.81055 L 460.5846 79 L 459.5006 79 L 459.5006 74.80469 C 459.4967 74.34765 459.3922 74.00977 459.1871 73.79102 C 458.98204 73.572265 458.6627 73.46289 458.2291 73.46289 C 457.87755 73.46289 457.56896 73.55664 457.30333 73.74414 C 457.0377 73.93164 456.8307 74.17773 456.68224 74.48242 L 456.68224 79 L 455.59825 79 L 455.59825 72.66016 Z"
         fill="#212121"
         id="path394" />
      <path
         d="M 463.3971 79 L 462.3131 79 L 462.3131 72.66016 L 463.3971 72.66016 Z M 462.2252 70.978516 C 462.2252 70.80273 462.2789 70.6543 462.38634 70.5332 C 462.49376 70.41211 462.65294 70.35156 462.8639 70.35156 C 463.0748 70.35156 463.235 70.41211 463.34435 70.5332 C 463.4537 70.6543 463.5084 70.80273 463.5084 70.978516 C 463.5084 71.1543 463.4537 71.30078 463.34435 71.41797 C 463.235 71.53516 463.0748 71.59375 462.8639 71.59375 C 462.65294 71.59375 462.49376 71.53516 462.38634 71.41797 C 462.2789 71.30078 462.2252 71.1543 462.2252 70.978516 Z"
         fill="#212121"
         id="path396" />
      <path
         d="M 466.60216 71.125 L 466.60216 72.66016 L 467.78575 72.66016 L 467.78575 73.49805 L 466.60216 73.49805 L 466.60216 77.42969 C 466.60216 77.683595 466.6549 77.87402 466.76036 78.00098 C 466.86583 78.12793 467.0455 78.19141 467.2994 78.19141 C 467.4244 78.19141 467.5963 78.16797 467.81505 78.12109 L 467.81505 79 C 467.5299 79.07813 467.25255 79.11719 466.983 79.11719 C 466.49864 79.11719 466.1334 78.9707 465.8873 78.67773 C 465.6412 78.38476 465.5182 77.96875 465.5182 77.42969 L 465.5182 73.49805 L 464.3639 73.49805 L 464.3639 72.66016 L 465.5182 72.66016 L 465.5182 71.125 Z"
         fill="#212121"
         id="path398" />
      <path
         d="M 438.0582 85.39453 L 435.31603 85.39453 L 435.31603 93 L 434.1969 93 L 434.1969 85.39453 L 431.46056 85.39453 L 431.46056 84.46875 L 438.0582 84.46875 Z"
         fill="#212121"
         id="path400" />
      <path
         d="M 441.25743 93.11719 C 440.39806 93.11719 439.69884 92.83496 439.1598 92.27051 C 438.6207 91.70605 438.3512 90.95118 438.3512 90.00586 L 438.3512 89.80664 C 438.3512 89.17773 438.4713 88.61621 438.71154 88.12207 C 438.95177 87.62793 439.2877 87.24121 439.71935 86.96191 C 440.151 86.68262 440.61876 86.54297 441.12267 86.54297 C 441.9469 86.54297 442.5875 86.81445 443.04454 87.35742 C 443.5016 87.90039 443.7301 88.67773 443.7301 89.68945 L 443.7301 90.14063 L 439.43517 90.14063 C 439.4508 90.76563 439.6334 91.27051 439.983 91.65527 C 440.33263 92.04004 440.77696 92.23242 441.31603 92.23242 C 441.69884 92.23242 442.02306 92.1543 442.2887 91.99805 C 442.5543 91.8418 442.78673 91.63477 442.98595 91.37695 L 443.64806 91.89258 C 443.1168 92.70899 442.31994 93.11719 441.25743 93.11719 Z M 441.12267 87.43359 C 440.68517 87.43359 440.318 87.59277 440.0211 87.91113 C 439.72423 88.22949 439.54064 88.67578 439.4703 89.25 L 442.6461 89.25 L 442.6461 89.16797 C 442.61486 88.61718 442.4664 88.19043 442.2008 87.8877 C 441.93517 87.58496 441.5758 87.43359 441.12267 87.43359 Z"
         fill="#212121"
         id="path402" />
      <path
         d="M 448.6754 91.31836 C 448.6754 91.02539 448.56505 90.79785 448.34435 90.63574 C 448.12364 90.47363 447.7389 90.33398 447.19005 90.2168 C 446.6412 90.09961 446.2057 89.95899 445.8834 89.79492 C 445.56114 89.63086 445.32286 89.43555 445.16857 89.20898 C 445.01427 88.98242 444.9371 88.71289 444.9371 88.40039 C 444.9371 87.88086 445.15685 87.44141 445.5963 87.08203 C 446.03576 86.72265 446.5973 86.54297 447.28087 86.54297 C 447.9996 86.54297 448.58263 86.72851 449.0299 87.09961 C 449.47716 87.4707 449.7008 87.94531 449.7008 88.52344 L 448.61095 88.52344 C 448.61095 88.22656 448.485 87.9707 448.233 87.75586 C 447.98107 87.54101 447.6637 87.43359 447.28087 87.43359 C 446.88634 87.43359 446.57775 87.51953 446.3551 87.69141 C 446.13243 87.86328 446.0211 88.08789 446.0211 88.36523 C 446.0211 88.62695 446.1246 88.82422 446.33165 88.95703 C 446.5387 89.08984 446.9127 89.2168 447.4537 89.33789 C 447.99474 89.45898 448.4332 89.60351 448.76915 89.77148 C 449.1051 89.93945 449.3541 90.1416 449.5162 90.37793 C 449.67833 90.61426 449.7594 90.90234 449.7594 91.24219 C 449.7594 91.8086 449.53283 92.26269 449.0797 92.60449 C 448.62657 92.94629 448.0387 93.11719 447.31603 93.11719 C 446.8082 93.11719 446.359 93.02734 445.96837 92.84766 C 445.57775 92.66797 445.2721 92.41699 445.0514 92.09473 C 444.8307 91.77246 444.7203 91.42383 444.7203 91.04883 L 445.8043 91.04883 C 445.82384 91.41211 445.96935 91.70019 446.24083 91.91309 C 446.5123 92.12598 446.8707 92.23242 447.31603 92.23242 C 447.7262 92.23242 448.0553 92.14941 448.30333 91.9834 C 448.5514 91.81738 448.6754 91.5957 448.6754 91.31836 Z"
         fill="#212121"
         id="path404" />
      <path
         d="M 452.6422 85.125 L 452.6422 86.66016 L 453.8258 86.66016 L 453.8258 87.49805 L 452.6422 87.49805 L 452.6422 91.42969 C 452.6422 91.6836 452.69493 91.87402 452.8004 92.00098 C 452.90587 92.12793 453.08556 92.19141 453.33947 92.19141 C 453.46447 92.19141 453.63634 92.16797 453.8551 92.12109 L 453.8551 93 C 453.56993 93.07813 453.2926 93.11719 453.02306 93.11719 C 452.5387 93.11719 452.17345 92.9707 451.92736 92.67773 C 451.68126 92.38476 451.5582 91.96875 451.5582 91.42969 L 451.5582 87.49805 L 450.4039 87.49805 L 450.4039 86.66016 L 451.5582 86.66016 L 451.5582 85.125 Z"
         fill="#212121"
         id="path406" />
      <path
         d="M 458.7828 91.31836 C 458.7828 91.02539 458.6725 90.79785 458.45177 90.63574 C 458.23107 90.47363 457.8463 90.33398 457.2975 90.2168 C 456.74864 90.09961 456.3131 89.95899 455.99083 89.79492 C 455.66857 89.63086 455.4303 89.43555 455.276 89.20898 C 455.1217 88.98242 455.04454 88.71289 455.04454 88.40039 C 455.04454 87.88086 455.26427 87.44141 455.7037 87.08203 C 456.1432 86.72265 456.7047 86.54297 457.3883 86.54297 C 458.10705 86.54297 458.69005 86.72851 459.1373 87.09961 C 459.5846 87.4707 459.8082 87.94531 459.8082 88.52344 L 458.71837 88.52344 C 458.71837 88.22656 458.5924 87.9707 458.34044 87.75586 C 458.0885 87.54101 457.7711 87.43359 457.3883 87.43359 C 456.99376 87.43359 456.68517 87.51953 456.4625 87.69141 C 456.23986 87.86328 456.12853 88.08789 456.12853 88.36523 C 456.12853 88.62695 456.23204 88.82422 456.4391 88.95703 C 456.6461 89.08984 457.0201 89.2168 457.56115 89.33789 C 458.10216 89.45898 458.54064 89.60351 458.8766 89.77148 C 459.2125 89.93945 459.46154 90.1416 459.62365 90.37793 C 459.78576 90.61426 459.8668 90.90234 459.8668 91.24219 C 459.8668 91.8086 459.64025 92.26269 459.1871 92.60449 C 458.734 92.94629 458.1461 93.11719 457.42345 93.11719 C 456.91564 93.11719 456.4664 93.02734 456.0758 92.84766 C 455.68517 92.66797 455.3795 92.41699 455.1588 92.09473 C 454.9381 91.77246 454.82775 91.42383 454.82775 91.04883 L 455.91173 91.04883 C 455.93126 91.41211 456.07677 91.70019 456.34825 91.91309 C 456.61974 92.12598 456.97814 92.23242 457.42345 92.23242 C 457.8336 92.23242 458.1627 92.14941 458.41075 91.9834 C 458.6588 91.81738 458.7828 91.5957 458.7828 91.31836 Z"
         fill="#212121"
         id="path408" />
      <path
         d="M 540.98044 75.66016 L 540.98044 79 L 539.85544 79 L 539.85544 70.46875 L 543.0019 70.46875 C 543.9355 70.46875 544.66696 70.70703 545.19626 71.18359 C 545.72556 71.66016 545.9902 72.29101 545.9902 73.07617 C 545.9902 73.9043 545.7314 74.54199 545.21384 74.98926 C 544.69625 75.43653 543.95505 75.66016 542.9902 75.66016 Z M 540.98044 74.74023 L 543.0019 74.74023 C 543.6035 74.74023 544.0644 74.59863 544.38473 74.31543 C 544.70505 74.032225 544.8652 73.62305 544.8652 73.08789 C 544.8652 72.580076 544.70505 72.17383 544.38473 71.86914 C 544.0644 71.56445 543.625 71.40625 543.0664 71.39453 L 540.98044 71.39453 Z"
         fill="#212121"
         id="path410" />
      <path
         d="M 551.1699 78.37305 C 550.748 78.86914 550.1289 79.11719 549.3125 79.11719 C 548.6367 79.11719 548.12204 78.9209 547.7685 78.52832 C 547.415 78.13574 547.2363 77.55469 547.2324 76.78516 L 547.2324 72.66016 L 548.3164 72.66016 L 548.3164 76.75586 C 548.3164 77.7168 548.707 78.19727 549.48825 78.19727 C 550.3164 78.19727 550.86715 77.888675 551.1406 77.27148 L 551.1406 72.66016 L 552.2246 72.66016 L 552.2246 79 L 551.1933 79 Z"
         fill="#212121"
         id="path412" />
      <path
         d="M 557.5625 77.31836 C 557.5625 77.02539 557.4521 76.79785 557.2314 76.63574 C 557.0107 76.47363 556.62595 76.333985 556.0771 76.2168 C 555.5283 76.09961 555.09274 75.958985 554.7705 75.79492 C 554.4482 75.63086 554.2099 75.43555 554.0556 75.20898 C 553.90133 74.98242 553.8242 74.71289 553.8242 74.40039 C 553.8242 73.88086 554.0439 73.44141 554.48337 73.08203 C 554.9228 72.722654 555.48434 72.54297 556.16794 72.54297 C 556.8867 72.54297 557.4697 72.72851 557.91696 73.09961 C 558.3642 73.470705 558.58786 73.94531 558.58786 74.52344 L 557.498 74.52344 C 557.498 74.22656 557.37204 73.9707 557.1201 73.75586 C 556.8681 73.541015 556.55075 73.43359 556.16794 73.43359 C 555.7734 73.43359 555.4648 73.51953 555.24216 73.69141 C 555.0195 73.86328 554.9082 74.08789 554.9082 74.36523 C 554.9082 74.62695 555.0117 74.82422 555.2187 74.95703 C 555.42575 75.08984 555.7998 75.2168 556.3408 75.33789 C 556.8818 75.458985 557.3203 75.603515 557.6562 75.77148 C 557.99216 75.93945 558.2412 76.1416 558.4033 76.37793 C 558.5654 76.61426 558.64645 76.90234 558.64645 77.24219 C 558.64645 77.8086 558.4199 78.26269 557.96677 78.60449 C 557.51364 78.94629 556.92575 79.11719 556.2031 79.11719 C 555.6953 79.11719 555.24606 79.02734 554.85544 78.84766 C 554.4648 78.66797 554.15915 78.41699 553.93845 78.09473 C 553.71774 77.77246 553.6074 77.42383 553.6074 77.04883 L 554.6914 77.04883 C 554.7109 77.41211 554.8564 77.70019 555.1279 77.91309 C 555.3994 78.12598 555.7578 78.23242 556.2031 78.23242 C 556.61325 78.23242 556.94235 78.149415 557.1904 77.9834 C 557.43845 77.81738 557.5625 77.5957 557.5625 77.31836 Z"
         fill="#212121"
         id="path414" />
      <path
         d="M 561.14255 73.42773 C 561.623 72.83789 562.248 72.54297 563.01755 72.54297 C 564.3574 72.54297 565.0332 73.29882 565.0449 74.81055 L 565.0449 79 L 563.9609 79 L 563.9609 74.80469 C 563.957 74.34765 563.8525 74.00977 563.6474 73.79102 C 563.44235 73.572265 563.123 73.46289 562.6894 73.46289 C 562.33786 73.46289 562.0293 73.55664 561.76364 73.74414 C 561.498 73.93164 561.291 74.17773 561.14255 74.48242 L 561.14255 79 L 560.05856 79 L 560.05856 70 L 561.14255 70 Z"
         fill="#212121"
         id="path416" />
      <path
         d="M 569.80856 79 L 569.80856 70.46875 L 572.21677 70.46875 C 572.95896 70.46875 573.6152 70.63281 574.1855 70.96094 C 574.7558 71.28906 575.19626 71.75586 575.5068 72.36133 C 575.81735 72.9668 575.9746 73.662105 575.9785 74.44727 L 575.9785 74.99219 C 575.9785 75.79688 575.8232 76.50195 575.51266 77.10742 C 575.2021 77.71289 574.75876 78.17773 574.1826 78.50195 C 573.6064 78.82617 572.9355 78.99219 572.1699 79 Z M 570.93356 71.39453 L 570.93356 78.08008 L 572.11716 78.08008 C 572.98435 78.08008 573.65915 77.81055 574.1416 77.27148 C 574.624 76.73242 574.8652 75.96485 574.8652 74.96875 L 574.8652 74.4707 C 574.8652 73.50195 574.6377 72.74903 574.1826 72.21191 C 573.7275 71.6748 573.082 71.40234 572.24606 71.39453 Z"
         fill="#212121"
         id="path418" />
      <path
         d="M 577.2207 75.77148 C 577.2207 75.15039 577.34274 74.5918 577.5869 74.0957 C 577.831 73.59961 578.17086 73.2168 578.6064 72.947266 C 579.04196 72.67773 579.539 72.54297 580.0976 72.54297 C 580.9609 72.54297 581.65915 72.84179 582.19235 73.43945 C 582.72556 74.03711 582.99216 74.83203 582.99216 75.82422 L 582.99216 75.90039 C 582.99216 76.51758 582.874 77.07129 582.63766 77.56152 C 582.4013 78.05176 582.06345 78.43359 581.624 78.70703 C 581.18454 78.98047 580.67966 79.11719 580.10934 79.11719 C 579.24996 79.11719 578.5537 78.81836 578.0205 78.2207 C 577.4873 77.62304 577.2207 76.83204 577.2207 75.84766 Z M 578.3105 75.90039 C 578.3105 76.60352 578.4736 77.16797 578.7998 77.59375 C 579.12595 78.01953 579.5625 78.23242 580.10934 78.23242 C 580.6601 78.23242 581.0976 78.0166 581.42184 77.58496 C 581.74606 77.15332 581.9082 76.54883 581.9082 75.77148 C 581.9082 75.07617 581.7431 74.5127 581.41305 74.081055 C 581.083 73.64941 580.6445 73.43359 580.0976 73.43359 C 579.5625 73.43359 579.1308 73.64648 578.8027 74.07227 C 578.4746 74.49805 578.3105 75.10742 578.3105 75.90039 Z"
         fill="#212121"
         id="path420" />
      <path
         d="M 586.8945 78.23242 C 587.2812 78.23242 587.6191 78.11524 587.9082 77.88086 C 588.19724 77.64648 588.3574 77.35352 588.38864 77.00195 L 589.414 77.00195 C 589.3945 77.36524 589.2695 77.71094 589.039 78.03906 C 588.80856 78.36719 588.50095 78.628905 588.1162 78.82422 C 587.7314 79.01953 587.3242 79.11719 586.8945 79.11719 C 586.0312 79.11719 585.3447 78.8291 584.8349 78.25293 C 584.32516 77.676755 584.0703 76.88868 584.0703 75.88867 L 584.0703 75.70703 C 584.0703 75.08984 584.18356 74.54102 584.4101 74.06055 C 584.6367 73.58008 584.9619 73.20703 585.3857 72.94141 C 585.80954 72.67578 586.3105 72.54297 586.88864 72.54297 C 587.5996 72.54297 588.1904 72.75586 588.6611 73.18164 C 589.1318 73.60742 589.3828 74.16015 589.414 74.83984 L 588.38864 74.83984 C 588.3574 74.429685 588.2021 74.092775 587.9228 73.8291 C 587.6435 73.56543 587.2988 73.43359 586.88864 73.43359 C 586.33786 73.43359 585.9111 73.63183 585.6084 74.02832 C 585.3056 74.42481 585.1543 74.99804 585.1543 75.74805 L 585.1543 75.953125 C 585.1543 76.6836 585.30465 77.24609 585.60544 77.640625 C 585.9062 78.03516 586.3359 78.23242 586.8945 78.23242 Z"
         fill="#212121"
         id="path422" />
      <path
         d="M 592.4023 76.06445 L 591.7226 76.77344 L 591.7226 79 L 590.63864 79 L 590.63864 70 L 591.7226 70 L 591.7226 75.44336 L 592.3027 74.74609 L 594.2773 72.66016 L 595.5957 72.66016 L 593.1289 75.30859 L 595.8828 79 L 594.6113 79 Z"
         fill="#212121"
         id="path424" />
      <path
         d="M 599.2285 79.11719 C 598.3691 79.11719 597.6699 78.83496 597.1308 78.27051 C 596.59176 77.70605 596.3222 76.95118 596.3222 76.00586 L 596.3222 75.80664 C 596.3222 75.17773 596.44235 74.61621 596.6826 74.12207 C 596.9228 73.62793 597.25876 73.24121 597.6904 72.96191 C 598.12204 72.68262 598.5898 72.54297 599.0937 72.54297 C 599.91794 72.54297 600.55856 72.81445 601.0156 73.35742 C 601.4726 73.90039 601.70114 74.67773 601.70114 75.68945 L 601.70114 76.140625 L 597.4062 76.140625 C 597.42184 76.76563 597.60446 77.27051 597.9541 77.65527 C 598.3037 78.04004 598.748 78.23242 599.2871 78.23242 C 599.6699 78.23242 599.9941 78.1543 600.2597 77.99805 C 600.52536 77.8418 600.7578 77.63477 600.957 77.37695 L 601.6191 77.89258 C 601.08786 78.70899 600.291 79.11719 599.2285 79.11719 Z M 599.0937 73.43359 C 598.6562 73.43359 598.289 73.59277 597.99216 73.91113 C 597.6953 74.22949 597.5117 74.67578 597.4414 75.25 L 600.61716 75.25 L 600.61716 75.16797 C 600.5859 74.617185 600.4375 74.19043 600.17184 73.887695 C 599.9062 73.58496 599.54685 73.43359 599.0937 73.43359 Z"
         fill="#212121"
         id="path426" />
      <path
         d="M 606.0195 73.63281 C 605.85544 73.60547 605.6777 73.5918 605.4863 73.5918 C 604.77536 73.5918 604.29294 73.89453 604.039 74.5 L 604.039 79 L 602.95505 79 L 602.95505 72.66016 L 604.0097 72.66016 L 604.0273 73.39258 C 604.3828 72.82617 604.8867 72.54297 605.539 72.54297 C 605.75 72.54297 605.9101 72.57031 606.0195 72.625 Z"
         fill="#212121"
         id="path428" />
      <rect
         x="556.9033"
         y="84.46875"
         width="1.125"
         height="8.53125"
         fill="#212121"
         id="rect430" />
      <path
         d="M 560.93454 86.66016 L 560.96384 87.36328 C 561.4287 86.8164 562.0556 86.54297 562.8447 86.54297 C 563.7314 86.54297 564.3349 86.88281 564.65524 87.5625 C 564.8662 87.25781 565.1406 87.01172 565.4785 86.82422 C 565.8164 86.63672 566.2158 86.54297 566.6767 86.54297 C 568.06736 86.54297 568.7744 87.27929 568.7978 88.75195 L 568.7978 93 L 567.71384 93 L 567.71384 88.81641 C 567.71384 88.36328 567.6103 88.02442 567.4033 87.7998 C 567.19626 87.57519 566.8486 87.46289 566.3603 87.46289 C 565.958 87.46289 565.624 87.58301 565.3584 87.82324 C 565.09274 88.06348 564.93845 88.38672 564.8955 88.79297 L 564.8955 93 L 563.8056 93 L 563.8056 88.8457 C 563.8056 87.92382 563.35447 87.46289 562.4521 87.46289 C 561.7412 87.46289 561.25485 87.76562 560.9931 88.37109 L 560.9931 93 L 559.90915 93 L 559.90915 86.66016 Z"
         fill="#212121"
         id="path432" />
      <path
         d="M 574.34665 93 C 574.28415 92.875 574.2334 92.65235 574.1943 92.33203 C 573.6904 92.85547 573.08884 93.11719 572.3896 93.11719 C 571.7646 93.11719 571.2519 92.94043 570.8515 92.58691 C 570.45114 92.2334 570.25095 91.78516 570.25095 91.24219 C 570.25095 90.58203 570.5019 90.06934 571.0039 89.7041 C 571.5058 89.33887 572.2119 89.15625 573.12204 89.15625 L 574.1767 89.15625 L 574.1767 88.6582 C 574.1767 88.2793 574.06345 87.97754 573.8369 87.75293 C 573.6103 87.52832 573.27634 87.41602 572.8349 87.41602 C 572.4482 87.41602 572.124 87.51367 571.8623 87.70898 C 571.60055 87.9043 571.4697 88.14062 571.4697 88.41797 L 570.37985 88.41797 C 570.37985 88.10156 570.49215 87.7959 570.71677 87.50098 C 570.9414 87.20605 571.24606 86.97266 571.6308 86.80078 C 572.0156 86.62891 572.43844 86.54297 572.8994 86.54297 C 573.62985 86.54297 574.2021 86.72558 574.6162 87.09082 C 575.03024 87.45606 575.2451 87.95898 575.2607 88.59961 L 575.2607 91.51758 C 575.2607 92.09961 575.3349 92.5625 575.4834 92.90625 L 575.4834 93 Z M 572.5478 92.17383 C 572.88767 92.17383 573.2099 92.08594 573.5146 91.91016 C 573.8193 91.73437 574.04 91.50586 574.1767 91.22461 L 574.1767 89.92383 L 573.3271 89.92383 C 571.999 89.92383 571.3349 90.3125 571.3349 91.08984 C 571.3349 91.42969 571.4482 91.69531 571.6748 91.88672 C 571.90134 92.07813 572.19235 92.17383 572.5478 92.17383 Z"
         fill="#212121"
         id="path434" />
      <path
         d="M 576.7021 89.77734 C 576.7021 88.78906 576.9306 88.00293 577.38766 87.41895 C 577.8447 86.83496 578.45016 86.54297 579.2041 86.54297 C 579.9775 86.54297 580.581 86.8164 581.0146 87.36328 L 581.06735 86.66016 L 582.0576 86.66016 L 582.0576 92.84766 C 582.0576 93.66797 581.8144 94.31445 581.3281 94.78711 C 580.84176 95.25977 580.18845 95.49609 579.3681 95.49609 C 578.9111 95.49609 578.46384 95.39844 578.02634 95.20312 C 577.5888 95.00781 577.25485 94.74024 577.0244 94.40039 L 577.5869 93.75 C 578.0517 94.32422 578.6201 94.61133 579.29196 94.61133 C 579.8193 94.61133 580.23044 94.46289 580.52536 94.16602 C 580.8203 93.86914 580.96774 93.45117 580.96774 92.91211 L 580.96774 92.36719 C 580.53415 92.86719 579.94236 93.11719 579.19235 93.11719 C 578.45016 93.11719 577.8496 92.81836 577.3906 92.2207 C 576.9316 91.62304 576.7021 90.8086 576.7021 89.77734 Z M 577.79196 89.90039 C 577.79196 90.61524 577.93844 91.17676 578.2314 91.58496 C 578.5244 91.99317 578.93454 92.19727 579.4619 92.19727 C 580.1455 92.19727 580.6474 91.88672 580.96774 91.26562 L 580.96774 88.37109 C 580.6357 87.76562 580.1377 87.46289 579.4736 87.46289 C 578.94625 87.46289 578.53415 87.66797 578.2373 88.07812 C 577.9404 88.48828 577.79196 89.0957 577.79196 89.90039 Z"
         fill="#212121"
         id="path436" />
      <path
         d="M 586.3232 93.11719 C 585.4638 93.11719 584.7646 92.83496 584.22555 92.27051 C 583.6865 91.70605 583.41696 90.95118 583.41696 90.00586 L 583.41696 89.80664 C 583.41696 89.17773 583.5371 88.61621 583.7773 88.12207 C 584.01755 87.62793 584.3535 87.24121 584.7851 86.96191 C 585.2168 86.68262 585.68454 86.54297 586.18845 86.54297 C 587.0127 86.54297 587.6533 86.81445 588.1103 87.35742 C 588.56735 87.90039 588.7959 88.67773 588.7959 89.68945 L 588.7959 90.14063 L 584.50095 90.14063 C 584.5166 90.76563 584.6992 91.27051 585.0488 91.65527 C 585.3984 92.04004 585.84274 92.23242 586.3818 92.23242 C 586.7646 92.23242 587.0888 92.1543 587.35446 91.99805 C 587.6201 91.8418 587.8525 91.63477 588.0517 91.37695 L 588.71384 91.89258 C 588.1826 92.70899 587.3857 93.11719 586.3232 93.11719 Z M 586.18845 87.43359 C 585.75094 87.43359 585.38376 87.59277 585.0869 87.91113 C 584.79 88.22949 584.6064 88.67578 584.5361 89.25 L 587.7119 89.25 L 587.7119 89.16797 C 587.6806 88.61718 587.5322 88.19043 587.2666 87.8877 C 587.00094 87.58496 586.6416 87.43359 586.18845 87.43359 Z"
         fill="#212121"
         id="path438" />
      <text
         xml:space="preserve"
         style="font-style:normal;font-weight:normal;font-size:30px;line-height:1.25;font-family:sans-serif;letter-spacing:0px;word-spacing:0px;fill:#000000;fill-opacity:1;stroke:none;stroke-width:0.75"
         x="158.58643"
         y="34.65432"
         id="text470"><tspan
           sodipodi:role="line"
           id="tspan468"
           x="158.58643"
           y="61.197289"
           style="stroke-width:0.75" /></text>
      <rect
         style="fill:#757575"
         id="rect4997"
         height="7.5"
         width="0.90332031"
         y="28.5"
         x="155.21756" />
      <path
         style="fill:#757575"
         inkscape:connector-curvature="0"
         id="path4999"
         d="m 157.06253,33.314453 c 0,-0.810551 0.19206,-1.4624 0.57617,-1.955566 0.38412,-0.493167 0.88704,-0.739747 1.5088,-0.739747 0.61849,0 1.10839,0.211587 1.46972,0.634766 V 28.5 h 0.90332 V 36 h -0.83008 l -0.0439,-0.566406 c -0.36133,0.44271 -0.86426,0.664062 -1.50879,0.664062 -0.61199,0 -1.11084,-0.250648 -1.49659,-0.751953 -0.38574,-0.501303 -0.57861,-1.155593 -0.57861,-1.962891 z m 0.90332,0.102539 c 0,0.598962 0.1237,1.067708 0.3711,1.40625 0.24739,0.338544 0.58919,0.507813 1.02539,0.507813 0.57292,0 0.99121,-0.257159 1.25488,-0.771485 v -2.426758 c -0.27018,-0.498049 -0.68522,-0.74707 -1.24512,-0.74707 -0.4427,0 -0.78776,0.170898 -1.03515,0.512695 -0.2474,0.341799 -0.3711,0.847979 -0.3711,1.518555 z" />
      <path
         style="fill:#757575"
         inkscape:connector-curvature="0"
         id="path5001"
         d="m 120.02445,33.74414 c -0.0879,0.751958 -0.3654,1.332193 -0.83252,1.740723 -0.46713,0.408531 -1.08805,0.612793 -1.8628,0.612793 -0.83984,0 -1.51285,-0.301104 -2.01904,-0.90332 -0.50619,-0.602216 -0.75928,-1.407873 -0.75928,-2.416992 V 32.09375 c 0,-0.66081 0.118,-1.24186 0.35401,-1.743164 0.236,-0.501306 0.57047,-0.886229 1.00341,-1.154786 0.43295,-0.268555 0.93425,-0.40283 1.50391,-0.40283 0.75521,0 1.36068,0.21077 1.81641,0.632323 0.45573,0.421552 0.72103,1.005042 0.7959,1.750487 h -0.94239 c -0.0814,-0.566408 -0.25797,-0.97656 -0.52978,-1.230467 -0.27181,-0.253908 -0.65186,-0.38086 -1.14014,-0.38086 -0.59896,0 -1.06852,0.221352 -1.40869,0.664063 -0.34017,0.44271 -0.51025,1.072587 -0.51025,1.889648 v 0.688476 c 0,0.77149 0.16113,1.38509 0.4834,1.84082 0.32226,0.455732 0.7731,0.683595 1.35253,0.683595 0.52084,0 0.92041,-0.118 1.19873,-0.354005 0.27833,-0.236003 0.46306,-0.64697 0.5542,-1.23291 z" />
      <path
         style="fill:#757575"
         inkscape:connector-curvature="0"
         id="path5003"
         d="m 122.56486,33.30957 c 0,-0.51758 0.10173,-0.98307 0.30518,-1.396484 0.20345,-0.413414 0.48665,-0.732421 0.84961,-0.957031 0.36296,-0.224611 0.77718,-0.336915 1.24267,-0.336915 0.71941,0 1.30127,0.24902 1.74561,0.74707 0.44434,0.49805 0.6665,1.16048 0.6665,1.987306 v 0.06348 c 0,0.514326 -0.0985,0.975748 -0.29541,1.384278 -0.19694,0.40853 -0.47851,0.726724 -0.84472,0.95459 -0.36622,0.227865 -0.78695,0.341796 -1.26221,0.341796 -0.71615,0 -1.29638,-0.249021 -1.74072,-0.74707 -0.44434,-0.498049 -0.66651,-1.157223 -0.66651,-1.977539 z m 0.90821,0.107422 c 0,0.585941 0.1359,1.056314 0.40771,1.411133 0.27181,0.354819 0.63558,0.532225 1.09131,0.532225 0.45899,0 0.82357,-0.179847 1.09375,-0.53955 0.27018,-0.3597 0.40527,-0.86344 0.40527,-1.51123 0,-0.57943 -0.13753,-1.04899 -0.41259,-1.40869 -0.27507,-0.359703 -0.64046,-0.539552 -1.0962,-0.539552 -0.44596,0 -0.80566,0.177407 -1.0791,0.532227 -0.27344,0.354819 -0.41015,0.862625 -0.41015,1.523437 z" />
      <path
         style="fill:#757575"
         inkscape:connector-curvature="0"
         id="path5005"
         d="m 131.56365,35.929626 -0.0141,-0.664559 c -0.41515,0.498456 -0.94816,0.740239 -1.59904,0.725356 -1.11625,-0.02552 -1.66484,-0.668108 -1.64581,-1.927775 l 0.0798,-3.490298 0.90309,0.02065 -0.0799,3.495181 c -0.006,0.38083 0.0751,0.664325 0.24185,0.850476 0.16669,0.186152 0.43065,0.283357 0.79188,0.291616 0.2929,0.0067 0.55177,-0.06552 0.77665,-0.216678 0.22486,-0.15115 0.40204,-0.352229 0.5315,-0.603241 l 0.0861,-3.763666 0.90309,0.02065 -0.12077,5.281823 z" />
      <path
         style="fill:#757575"
         inkscape:connector-curvature="0"
         id="path5007"
         d="m 140.83206,36 v -7.109375 h 2.32422 c 0.77149,0 1.35172,0.159505 1.74072,0.478515 0.389,0.319013 0.5835,0.791013 0.5835,1.416016 0,0.332034 -0.0944,0.625814 -0.2832,0.881348 -0.1888,0.255536 -0.44596,0.453286 -0.77149,0.593262 0.38412,0.107422 0.68766,0.311684 0.91065,0.612794 0.22298,0.301107 0.33447,0.65999 0.33447,1.07666 0,0.638023 -0.2067,1.13932 -0.62012,1.503905 C 144.6374,35.81771 144.0531,36 143.29788,36 Z m 0.9375,-3.325195 V 35.2334 h 1.54785 c 0.4362,0 0.78044,-0.11312 1.03272,-0.339357 0.25227,-0.226238 0.37842,-0.537923 0.37842,-0.935059 0,-0.856124 -0.46549,-1.284179 -1.39649,-1.284179 z m 0,-0.751955 h 1.41602 c 0.41016,0 0.73812,-0.102536 0.98389,-0.307616 0.24576,-0.205079 0.36865,-0.483396 0.36865,-0.834961 0,-0.390627 -0.11393,-0.674641 -0.3418,-0.85205 -0.22787,-0.17741 -0.57454,-0.266113 -1.04004,-0.266113 h -1.38672 z" />
      <path
         style="fill:#757575"
         inkscape:connector-curvature="0"
         id="path5009"
         d="m 150.17777,35.47754 c -0.35157,0.413413 -0.86751,0.620116 -1.54786,0.620116 -0.56315,0 -0.99201,-0.163572 -1.28661,-0.490722 -0.2946,-0.32715 -0.44353,-0.811358 -0.44678,-1.452637 v -3.4375 h 0.90332 v 3.413086 c 0,0.800787 0.32551,1.201172 0.97656,1.201172 0.6901,0 1.14909,-0.257159 1.37695,-0.771485 v -3.842773 h 0.90332 V 36 h -0.85937 z" />
      <path
         style="fill:#757575"
         inkscape:connector-curvature="0"
         id="path5011"
         d="m 153.41019,36 h -0.90332 v -5.283203 h 0.90332 z m -0.97656,-6.68457 c 0,-0.146485 0.0447,-0.270182 0.13427,-0.371094 0.0895,-0.100912 0.22217,-0.151366 0.39795,-0.151366 0.17578,0 0.30925,0.05045 0.40039,0.151366 0.0911,0.100912 0.13672,0.224609 0.13672,0.371094 0,0.146485 -0.0456,0.268554 -0.13672,0.36621 -0.0911,0.09766 -0.22461,0.146485 -0.40039,0.146485 -0.17578,0 -0.30843,-0.04883 -0.39795,-0.146485 -0.0895,-0.09766 -0.13427,-0.219725 -0.13427,-0.36621 z" />
      <rect
         style="fill:#757575"
         id="rect5013"
         height="7.5"
         width="0.90332031"
         y="28.5"
         x="120.71757" />
      <path
         style="fill:#757575"
         inkscape:connector-curvature="0"
         id="path5015"
         d="m 133.06253,33.314453 c 0,-0.810551 0.19206,-1.4624 0.57617,-1.955566 0.38412,-0.493167 0.88704,-0.739747 1.5088,-0.739747 0.61849,0 1.10839,0.211587 1.46972,0.634766 V 28.5 h 0.90332 V 36 h -0.83008 l -0.0439,-0.566406 c -0.36133,0.44271 -0.86426,0.664062 -1.50879,0.664062 -0.61199,0 -1.11084,-0.250648 -1.49659,-0.751953 -0.38574,-0.501303 -0.57861,-1.155593 -0.57861,-1.962891 z m 0.90332,0.102539 c 0,0.598962 0.1237,1.067708 0.3711,1.40625 0.24739,0.338544 0.58919,0.507813 1.02539,0.507813 0.57292,0 0.99121,-0.257159 1.25488,-0.771485 v -2.426758 c -0.27018,-0.498049 -0.68522,-0.74707 -1.24512,-0.74707 -0.4427,0 -0.78776,0.170898 -1.03515,0.512695 -0.2474,0.341799 -0.3711,0.847979 -0.3711,1.518555 z" />
      <rect
         x="155.21756"
         y="28.5"
         width="0.90332031"
         height="7.5"
         id="rect5017"
         style="fill:#757575" />
      <path
         d="m 157.06253,33.314453 c 0,-0.810551 0.19206,-1.4624 0.57617,-1.955566 0.38412,-0.493167 0.88704,-0.739747 1.5088,-0.739747 0.61849,0 1.10839,0.211587 1.46972,0.634766 V 28.5 h 0.90332 V 36 h -0.83008 l -0.0439,-0.566406 c -0.36133,0.44271 -0.86426,0.664062 -1.50879,0.664062 -0.61199,0 -1.11084,-0.250648 -1.49659,-0.751953 -0.38574,-0.501303 -0.57861,-1.155593 -0.57861,-1.962891 z m 0.90332,0.102539 c 0,0.598962 0.1237,1.067708 0.3711,1.40625 0.24739,0.338544 0.58919,0.507813 1.02539,0.507813 0.57292,0 0.99121,-0.257159 1.25488,-0.771485 v -2.426758 c -0.27018,-0.498049 -0.68522,-0.74707 -1.24512,-0.74707 -0.4427,0 -0.78776,0.170898 -1.03515,0.512695 -0.2474,0.341799 -0.3711,0.847979 -0.3711,1.518555 z"
         id="path5019"
         inkscape:connector-curvature="0"
         style="fill:#757575" />
    </g>
  </g>
</svg>
