<?xml version="1.0" encoding="UTF-8" standalone="no"?>
<!DOCTYPE svg PUBLIC "-//W3C//DTD SVG 1.1//EN" "http://www.w3.org/Graphics/SVG/1.1/DTD/svg11.dtd">
<svg xmlns="http://www.w3.org/2000/svg" xmlns:xl="http://www.w3.org/1999/xlink" version="1.1" viewBox="0 0 736 135" width="736pt" height="135pt" xmlns:dc="http://purl.org/dc/elements/1.1/">
  <metadata> Produced by OmniGraffle 7.4.1 
    <dc:date>2017-08-10 00:28:29 +0000</dc:date>
  </metadata>
  <defs>
    <marker orient="auto" overflow="visible" markerUnits="strokeWidth" id="TreehouseArrow_Marker" viewBox="-1 -5 10 10" markerWidth="10" markerHeight="10" color="#616161">
      <g>
        <path d="M 8 0 L 0 0 M 4 -4 L 8 0 L 4 4" fill="none" stroke="currentColor" stroke-width="1"/>
      </g>
    </marker>
  </defs>
  <g stroke="none" stroke-opacity="1" stroke-dasharray="none" fill="none" fill-opacity="1">
    <title>Flow chart 3</title>
    <g>
      <title>Layer 1</title>
      <rect x="15" y="13" width="710.1915" height="110" fill="#e2f3ec"/>
      <path d="M 97.59574 50.06383 L 164.59574 77.06383 L 97.59574 104.06383 L 30.595745 77.06383 Z" fill="white"/>
      <path d="M 97.59574 50.06383 L 164.59574 77.06383 L 97.59574 104.06383 L 30.595745 77.06383 Z" stroke="#d7d7d7" stroke-linecap="round" stroke-linejoin="round" stroke-width="1"/>
      <rect x="192.11792" y="50.06383" width="86.7621" height="54" fill="white"/>
      <rect x="192.11792" y="50.06383" width="86.7621" height="54" stroke="#dfdfdf" stroke-linecap="round" stroke-linejoin="round" stroke-width="1"/>
      <rect x="314.44655" y="50.06383" width="134" height="54" fill="white"/>
      <rect x="314.44655" y="50.06383" width="134" height="54" stroke="#dfdfdf" stroke-linecap="round" stroke-linejoin="round" stroke-width="1"/>
      <rect x="607.9536" y="50.06383" width="101" height="54" fill="white"/>
      <rect x="607.9536" y="50.06383" width="101" height="54" stroke="#dfdfdf" stroke-linecap="round" stroke-linejoin="round" stroke-width="1"/>
      <path d="M 554.6386 103.22097 L 574.9536 76.81383 L 554.6386 50.40669 L 554.6386 50.06383 L 554.3748 50.06383 L 488.1915 50.06383 L 488.1915 104.06383 L 554.6386 104.06383 Z" fill="white"/>
      <path d="M 554.6386 103.22097 L 574.9536 76.81383 L 554.6386 50.40669 L 554.6386 50.06383 L 554.3748 50.06383 L 488.1915 50.06383 L 488.1915 104.06383 L 554.6386 104.06383 Z" stroke="#dfdfdf" stroke-linecap="round" stroke-linejoin="round" stroke-width="1"/>
      <path d="M 164.59574 77.06383 L 166.54736 77.06383 L 182.21792 77.06383" marker-end="url(#TreehouseArrow_Marker)" stroke="#616161" stroke-linecap="round" stroke-linejoin="round" stroke-width="1"/>
      <line x1="278.88002" y1="77.06383" x2="304.54655" y2="77.06383" marker-end="url(#TreehouseArrow_Marker)" stroke="#616161" stroke-linecap="round" stroke-linejoin="round" stroke-width="1"/>
      <path d="M 448.44655 77.06383 L 456.50954 77.06383 L 478.2915 77.06383" marker-end="url(#TreehouseArrow_Marker)" stroke="#616161" stroke-linecap="round" stroke-linejoin="round" stroke-width="1"/>
      <path d="M 574.76126 77.06383 L 595.01306 77.06383 L 598.0536 77.06383" marker-end="url(#TreehouseArrow_Marker)" stroke="#616161" stroke-linecap="round" stroke-linejoin="round" stroke-width="1"/>
      <path d="M 27.919922 33.831055 C 27.11588 33.599934 26.530764 33.31592 26.16455 32.979004 C 25.798338 32.64209 25.615234 32.22624 25.615234 31.731445 C 25.615234 31.171547 25.839028 30.708498 26.28662 30.342285 C 26.734214 29.976072 27.316077 29.79297 28.032227 29.79297 C 28.52051 29.79297 28.95589 29.88737 29.33838 30.076172 C 29.720868 30.264975 30.01709 30.52539 30.22705 30.857422 C 30.437013 31.189455 30.541992 31.552407 30.541992 31.94629 L 29.59961 31.94629 C 29.59961 31.5166 29.462892 31.178875 29.189453 30.933105 C 28.916014 30.687336 28.530276 30.564453 28.032227 30.564453 C 27.569985 30.564453 27.209474 30.666177 26.950684 30.86963 C 26.691893 31.07308 26.5625 31.355467 26.5625 31.716797 C 26.5625 32.00651 26.685383 32.251464 26.931152 32.45166 C 27.176922 32.651856 27.595212 32.83496 28.186035 33.000977 C 28.77686 33.166993 29.239093 33.350097 29.572754 33.550293 C 29.906414 33.75049 30.153808 33.98405 30.31494 34.250977 C 30.476075 34.517905 30.55664 34.83203 30.55664 35.19336 C 30.55664 35.769534 30.332033 36.230955 29.882812 36.577637 C 29.43359 36.92432 28.83301 37.097656 28.081055 37.097656 C 27.59277 37.097656 27.137046 37.00407 26.713867 36.816895 C 26.290688 36.62972 25.964357 36.373374 25.734863 36.04785 C 25.50537 35.72233 25.390625 35.352867 25.390625 34.939453 L 26.333008 34.939453 C 26.333008 35.369143 26.491698 35.708495 26.809082 35.95752 C 27.126466 36.206544 27.550453 36.331055 28.081055 36.331055 C 28.57585 36.331055 28.955077 36.230144 29.21875 36.02832 C 29.482423 35.826496 29.614258 35.551434 29.614258 35.203125 C 29.614258 34.854816 29.49219 34.58545 29.248047 34.39502 C 29.003905 34.20459 28.5612 34.016602 27.919922 33.831055 Z" fill="#757575"/>
      <path d="M 36.0791 34.416992 C 36.0791 35.221033 35.895184 35.868813 35.527344 36.36035 C 35.159503 36.85189 34.66146 37.097656 34.033203 37.097656 C 33.391924 37.097656 32.88737 36.894208 32.51953 36.487305 L 32.51953 39.03125 L 31.61621 39.03125 L 31.61621 31.716797 L 32.441406 31.716797 L 32.48535 32.302734 C 32.85319 31.847003 33.364255 31.61914 34.018555 31.61914 C 34.653323 31.61914 35.155434 31.858396 35.524902 32.336914 C 35.89437 32.815432 36.0791 33.481116 36.0791 34.333984 Z M 35.17578 34.314453 C 35.17578 33.718747 35.04883 33.248374 34.79492 32.90332 C 34.541014 32.558267 34.19271 32.385742 33.75 32.385742 C 33.203122 32.385742 32.79297 32.628253 32.51953 33.11328 L 32.51953 35.637695 C 32.789715 36.11947 33.203122 36.36035 33.759766 36.36035 C 34.19271 36.36035 34.536945 36.18864 34.79248 35.845215 C 35.048016 35.50179 35.17578 34.99154 35.17578 34.314453 Z" fill="#757575"/>
      <path d="M 38.20801 37 L 37.304688 37 L 37.304688 31.716797 L 38.20801 31.716797 Z M 37.231445 30.31543 C 37.231445 30.168945 37.276204 30.045248 37.365723 29.944336 C 37.45524 29.843424 37.58789 29.79297 37.76367 29.79297 C 37.939454 29.79297 38.072916 29.843424 38.164062 29.944336 C 38.25521 30.045248 38.30078 30.168945 38.30078 30.31543 C 38.30078 30.461915 38.25521 30.583984 38.164062 30.68164 C 38.072916 30.779297 37.939454 30.828125 37.76367 30.828125 C 37.58789 30.828125 37.45524 30.779297 37.365723 30.68164 C 37.276204 30.583984 37.231445 30.461915 37.231445 30.31543 Z" fill="#757575"/>
      <path d="M 40.507812 31.716797 L 40.53711 32.38086 C 40.940757 31.873044 41.468096 31.61914 42.11914 31.61914 C 43.235683 31.61914 43.79883 32.249017 43.808594 33.50879 L 43.808594 37 L 42.905273 37 L 42.905273 33.503906 C 42.90202 33.123045 42.81494 32.841472 42.644043 32.65918 C 42.473144 32.476887 42.207033 32.385742 41.845703 32.385742 C 41.552733 32.385742 41.295574 32.463866 41.07422 32.620117 C 40.852863 32.776368 40.68034 32.981444 40.55664 33.23535 L 40.55664 37 L 39.65332 37 L 39.65332 31.716797 Z" fill="#757575"/>
      <path d="M 46.02539 31.716797 L 46.05469 32.38086 C 46.458335 31.873044 46.985674 31.61914 47.63672 31.61914 C 48.75326 31.61914 49.316406 32.249017 49.32617 33.50879 L 49.32617 37 L 48.42285 37 L 48.42285 33.503906 C 48.419596 33.123045 48.33252 32.841472 48.16162 32.65918 C 47.99072 32.476887 47.72461 32.385742 47.36328 32.385742 C 47.07031 32.385742 46.81315 32.463866 46.591797 32.620117 C 46.37044 32.776368 46.19792 32.981444 46.07422 33.23535 L 46.07422 37 L 45.1709 37 L 45.1709 31.716797 Z" fill="#757575"/>
      <path d="M 53.950195 37 C 53.89811 36.895833 53.855794 36.710288 53.82324 36.44336 C 53.40332 36.87956 52.90202 37.097656 52.319336 37.097656 C 51.7985 37.097656 51.37126 36.95036 51.0376 36.65576 C 50.70394 36.361164 50.53711 35.987632 50.53711 35.535156 C 50.53711 34.985023 50.746254 34.55778 51.16455 34.25342 C 51.58285 33.949054 52.17122 33.796875 52.92969 33.796875 L 53.808594 33.796875 L 53.808594 33.381836 C 53.808594 33.06608 53.714194 32.814617 53.52539 32.62744 C 53.33659 32.440266 53.05827 32.34668 52.69043 32.34668 C 52.36816 32.34668 52.09798 32.42806 51.87988 32.59082 C 51.66178 32.75358 51.552734 32.95052 51.552734 33.18164 L 50.64453 33.18164 C 50.64453 32.917967 50.73812 32.66325 50.92529 32.41748 C 51.11247 32.17171 51.36637 31.977214 51.68701 31.833984 C 52.00765 31.690754 52.360024 31.61914 52.74414 31.61914 C 53.35287 31.61914 53.82975 31.77132 54.174805 32.075684 C 54.51986 32.380047 54.69889 32.79915 54.711914 33.333008 L 54.711914 35.76465 C 54.711914 36.249677 54.77376 36.635415 54.89746 36.921875 L 54.89746 37 Z M 52.45117 36.311523 C 52.734376 36.311523 53.00293 36.23828 53.256836 36.091797 C 53.510743 35.94531 53.69466 35.754884 53.808594 35.520508 L 53.808594 34.436523 L 53.100586 34.436523 C 51.99381 34.436523 51.44043 34.760413 51.44043 35.408203 C 51.44043 35.691408 51.53483 35.91276 51.72363 36.072266 C 51.912436 36.23177 52.154946 36.311523 52.45117 36.311523 Z" fill="#757575"/>
      <path d="M 57.60254 34.55371 L 57.03613 35.14453 L 57.03613 37 L 56.13281 37 L 56.13281 29.5 L 57.03613 29.5 L 57.03613 34.036133 L 57.51953 33.45508 L 59.16504 31.716797 L 60.26367 31.716797 L 58.20801 33.92383 L 60.50293 37 L 59.44336 37 Z" fill="#757575"/>
      <path d="M 63.291016 37.097656 C 62.574866 37.097656 61.99219 36.86247 61.54297 36.39209 C 61.09375 35.92171 60.86914 35.292647 60.86914 34.504883 L 60.86914 34.338867 C 60.86914 33.814776 60.96924 33.346845 61.16943 32.93506 C 61.36963 32.523273 61.649575 32.20101 62.00928 31.96826 C 62.36898 31.735513 62.75879 31.61914 63.17871 31.61914 C 63.86556 31.61914 64.39941 31.845375 64.78027 32.29785 C 65.161135 32.750328 65.35156 33.398108 65.35156 34.24121 L 65.35156 34.617188 L 61.77246 34.617188 C 61.78548 35.138023 61.93766 35.558755 62.229004 35.879395 C 62.52035 36.200034 62.89062 36.36035 63.33984 36.36035 C 63.658856 36.36035 63.929035 36.29525 64.15039 36.16504 C 64.371746 36.03483 64.56543 35.862306 64.731445 35.64746 L 65.2832 36.07715 C 64.84049 36.75749 64.17644 37.097656 63.291016 37.097656 Z M 63.17871 32.36133 C 62.814126 32.36133 62.50814 32.493977 62.26074 32.759277 C 62.013345 33.02458 61.86035 33.39648 61.80176 33.875 L 64.44824 33.875 L 64.44824 33.80664 C 64.4222 33.347654 64.2985 32.992026 64.07715 32.739746 C 63.85579 32.487466 63.55632 32.36133 63.17871 32.36133 Z" fill="#757575"/>
      <path d="M 68.950195 32.527344 C 68.813476 32.504557 68.665365 32.493164 68.50586 32.493164 C 67.91341 32.493164 67.511394 32.74544 67.299805 33.25 L 67.299805 37 L 66.396484 37 L 66.396484 31.716797 L 67.27539 31.716797 L 67.29004 32.32715 C 67.586265 31.85514 68.00618 31.61914 68.549805 31.61914 C 68.72559 31.61914 68.85905 31.641927 68.950195 31.6875 Z" fill="#757575"/>
      <path d="M 69.123245 73.52383 L 69.123245 64.99258 L 71.53145 64.99258 C 72.27364 64.99258 72.92988 65.15664 73.5002 65.48477 C 74.07051 65.812894 74.51094 66.27969 74.82149 66.88516 C 75.132035 67.49063 75.28926 68.185935 75.29317 68.971095 L 75.29317 69.51602 C 75.29317 70.32071 75.137895 71.02578 74.82735 71.63125 C 74.5168 72.23672 74.07344 72.70156 73.49727 73.02578 C 72.92109 73.35 72.2502 73.51602 71.48457 73.52383 Z M 70.248245 65.91836 L 70.248245 72.60391 L 71.43184 72.60391 C 72.29903 72.60391 72.97383 72.33438 73.45625 71.79531 C 73.93868 71.25625 74.179885 70.48868 74.179885 69.49258 L 74.179885 68.99453 C 74.179885 68.02578 73.95235 67.272856 73.49727 66.73574 C 73.04219 66.19863 72.39669 65.92617 71.560745 65.91836 Z" fill="black"/>
      <path d="M 79.45332 73.64102 C 78.59394 73.64102 77.89473 73.35879 77.35567 72.79434 C 76.8166 72.22988 76.54707 71.47501 76.54707 70.52969 L 76.54707 70.33047 C 76.54707 69.70156 76.66719 69.14004 76.90742 68.6459 C 77.14766 68.15176 77.48359 67.76504 77.91524 67.48574 C 78.34688 67.206446 78.81465 67.0668 79.31856 67.0668 C 80.14278 67.0668 80.7834 67.33828 81.24043 67.88125 C 81.69747 68.42422 81.92598 69.20156 81.92598 70.21328 L 81.92598 70.664455 L 77.63106 70.664455 C 77.64668 71.28946 77.8293 71.794336 78.17891 72.1791 C 78.52852 72.56387 78.97285 72.75625 79.51192 72.75625 C 79.89473 72.75625 80.21895 72.67813 80.48457 72.52188 C 80.7502 72.36563 80.98262 72.1586 81.18184 71.90078 L 81.84395 72.41641 C 81.312695 73.23282 80.51583 73.64102 79.45332 73.64102 Z M 79.31856 67.95742 C 78.881055 67.95742 78.51387 68.1166 78.216995 68.43496 C 77.92012 68.75332 77.73653 69.19961 77.66621 69.77383 L 80.84199 69.77383 L 80.84199 69.6918 C 80.81074 69.141015 80.66231 68.71426 80.39668 68.411525 C 80.13106 68.10879 79.77168 67.95742 79.31856 67.95742 Z" fill="black"/>
      <path d="M 84.65059 65.64883 L 84.65059 67.18399 L 85.83418 67.18399 L 85.83418 68.02188 L 84.65059 68.02188 L 84.65059 71.95352 C 84.65059 72.207425 84.70332 72.39785 84.80879 72.52481 C 84.91426 72.65176 85.09395 72.71524 85.34785 72.71524 C 85.47285 72.71524 85.64473 72.6918 85.86348 72.64492 L 85.86348 73.52383 C 85.57832 73.601955 85.30098 73.64102 85.03145 73.64102 C 84.54707 73.64102 84.18184 73.49453 83.93574 73.20156 C 83.68965 72.90859 83.5666 72.49258 83.5666 71.95352 L 83.5666 68.02188 L 82.41231 68.02188 L 82.41231 67.18399 L 83.5666 67.18399 L 83.5666 65.64883 Z" fill="black"/>
      <path d="M 89.73067 73.64102 C 88.87129 73.64102 88.17208 73.35879 87.63301 72.79434 C 87.09395 72.22988 86.82442 71.47501 86.82442 70.52969 L 86.82442 70.33047 C 86.82442 69.70156 86.94453 69.14004 87.18477 68.6459 C 87.425 68.15176 87.76094 67.76504 88.19258 67.48574 C 88.62422 67.206446 89.09199 67.0668 89.5959 67.0668 C 90.42012 67.0668 91.06074 67.33828 91.51778 67.88125 C 91.97481 68.42422 92.20332 69.20156 92.20332 70.21328 L 92.20332 70.664455 L 87.9084 70.664455 C 87.92403 71.28946 88.10664 71.794336 88.45625 72.1791 C 88.80586 72.56387 89.2502 72.75625 89.78926 72.75625 C 90.17207 72.75625 90.49629 72.67813 90.76192 72.52188 C 91.02754 72.36563 91.25996 72.1586 91.45918 71.90078 L 92.12129 72.41641 C 91.59004 73.23282 90.79317 73.64102 89.73067 73.64102 Z M 89.5959 67.95742 C 89.1584 67.95742 88.79121 68.1166 88.49434 68.43496 C 88.19746 68.75332 88.01387 69.19961 87.94356 69.77383 L 91.11934 69.77383 L 91.11934 69.6918 C 91.08809 69.141015 90.93965 68.71426 90.67403 68.411525 C 90.4084 68.10879 90.04903 67.95742 89.5959 67.95742 Z" fill="black"/>
      <path d="M 96.0002 72.75625 C 96.38692 72.75625 96.7248 72.639065 97.01387 72.40469 C 97.30293 72.17031 97.46309 71.87735 97.49434 71.52578 L 98.51973 71.52578 C 98.5002 71.88907 98.3752 72.234766 98.14473 72.56289 C 97.91426 72.89102 97.60665 73.152735 97.22188 73.34805 C 96.83711 73.54336 96.42989 73.64102 96.0002 73.64102 C 95.13691 73.64102 94.4504 73.35293 93.94063 72.77676 C 93.43086 72.200585 93.17598 71.41251 93.17598 70.4125 L 93.17598 70.23086 C 93.17598 69.61367 93.28926 69.06485 93.51582 68.58438 C 93.74239 68.103906 94.06758 67.73086 94.49141 67.46524 C 94.91524 67.19961 95.41621 67.0668 95.99434 67.0668 C 96.70528 67.0668 97.29609 67.27969 97.7668 67.70547 C 98.2375 68.13125 98.48848 68.68398 98.51973 69.36367 L 97.49434 69.36367 C 97.46309 68.953515 97.30782 68.616605 97.02852 68.35293 C 96.74922 68.08926 96.4045 67.95742 95.99434 67.95742 C 95.44355 67.95742 95.0168 68.15566 94.71406 68.55215 C 94.41133 68.94864 94.25996 69.52187 94.25996 70.27188 L 94.25996 70.476955 C 94.25996 71.20743 94.41035 71.76992 94.71114 72.164455 C 95.01192 72.55899 95.4416 72.75625 96.0002 72.75625 Z" fill="black"/>
      <path d="M 101.20918 65.64883 L 101.20918 67.18399 L 102.39278 67.18399 L 102.39278 68.02188 L 101.20918 68.02188 L 101.20918 71.95352 C 101.20918 72.207425 101.26192 72.39785 101.36739 72.52481 C 101.47285 72.65176 101.65254 72.71524 101.90645 72.71524 C 102.03145 72.71524 102.20332 72.6918 102.42207 72.64492 L 102.42207 73.52383 C 102.13692 73.601955 101.85957 73.64102 101.59004 73.64102 C 101.10566 73.64102 100.74043 73.49453 100.49434 73.20156 C 100.24824 72.90859 100.1252 72.49258 100.1252 71.95352 L 100.1252 68.02188 L 98.9709 68.02188 L 98.9709 67.18399 L 100.1252 67.18399 L 100.1252 65.64883 Z" fill="black"/>
      <path d="M 113.35567 73.52383 L 112.22481 73.52383 L 107.92989 66.94961 L 107.92989 73.52383 L 106.79903 73.52383 L 106.79903 64.99258 L 107.92989 64.99258 L 112.23653 71.596095 L 112.23653 64.99258 L 113.35567 64.99258 Z" fill="black"/>
      <path d="M 117.81465 73.64102 C 116.95527 73.64102 116.25606 73.35879 115.717 72.79434 C 115.17793 72.22988 114.9084 71.47501 114.9084 70.52969 L 114.9084 70.33047 C 114.9084 69.70156 115.02852 69.14004 115.26875 68.6459 C 115.50899 68.15176 115.84492 67.76504 116.27656 67.48574 C 116.70821 67.206446 117.17598 67.0668 117.67989 67.0668 C 118.50411 67.0668 119.14473 67.33828 119.60176 67.88125 C 120.0588 68.42422 120.28731 69.20156 120.28731 70.21328 L 120.28731 70.664455 L 115.99239 70.664455 C 116.00801 71.28946 116.19063 71.794336 116.54024 72.1791 C 116.88985 72.56387 117.33418 72.75625 117.87324 72.75625 C 118.25606 72.75625 118.58027 72.67813 118.8459 72.52188 C 119.11153 72.36563 119.34395 72.1586 119.54317 71.90078 L 120.20528 72.41641 C 119.67402 73.23282 118.87716 73.64102 117.81465 73.64102 Z M 117.67989 67.95742 C 117.24238 67.95742 116.8752 68.1166 116.57832 68.43496 C 116.28145 68.75332 116.09785 69.19961 116.02754 69.77383 L 119.20332 69.77383 L 119.20332 69.6918 C 119.17207 69.141015 119.02364 68.71426 118.75801 68.411525 C 118.49238 68.10879 118.13301 67.95742 117.67989 67.95742 Z" fill="black"/>
      <path d="M 127.1545 72.02969 L 128.37324 67.18399 L 129.45723 67.18399 L 127.61153 73.52383 L 126.73262 73.52383 L 125.1916 68.71914 L 123.6916 73.52383 L 122.8127 73.52383 L 120.97285 67.18399 L 122.05098 67.18399 L 123.29903 71.93008 L 124.77559 67.18399 L 125.64864 67.18399 Z" fill="black"/>
      <rect x="83.30879" y="78.99258" width="1.125" height="8.53125" fill="black"/>
      <path d="M 87.34004 81.18399 L 87.36934 81.88711 C 87.83418 81.34023 88.46113 81.0668 89.2502 81.0668 C 90.13692 81.0668 90.74043 81.40664 91.06074 82.08633 C 91.27168 81.78164 91.5461 81.53555 91.88399 81.34805 C 92.22188 81.16055 92.62129 81.0668 93.08223 81.0668 C 94.47286 81.0668 95.17989 81.80312 95.20332 83.27578 L 95.20332 87.52383 L 94.11934 87.52383 L 94.11934 83.34024 C 94.11934 82.88711 94.01582 82.548245 93.80879 82.32363 C 93.60176 82.09902 93.25411 81.98672 92.76582 81.98672 C 92.36348 81.98672 92.0295 82.10684 91.76387 82.34707 C 91.49824 82.58731 91.34395 82.91055 91.30098 83.3168 L 91.30098 87.52383 L 90.21114 87.52383 L 90.21114 83.36953 C 90.21114 82.44765 89.75997 81.98672 88.85762 81.98672 C 88.14668 81.98672 87.66036 82.28945 87.39864 82.89492 L 87.39864 87.52383 L 86.31465 87.52383 L 86.31465 81.18399 Z" fill="black"/>
      <path d="M 100.75215 87.52383 C 100.68965 87.39883 100.63887 87.17618 100.59981 86.85586 C 100.0959 87.3793 99.49434 87.64102 98.79512 87.64102 C 98.17012 87.64102 97.65743 87.46426 97.25703 87.11074 C 96.85664 86.75723 96.65645 86.30899 96.65645 85.76602 C 96.65645 85.10586 96.90742 84.59317 97.40938 84.22793 C 97.91133 83.8627 98.61738 83.68008 99.52754 83.68008 L 100.58223 83.68008 L 100.58223 83.18203 C 100.58223 82.80312 100.46895 82.50137 100.24239 82.27676 C 100.01582 82.05215 99.68184 81.93985 99.24043 81.93985 C 98.85371 81.93985 98.5295 82.0375 98.26778 82.23281 C 98.00606 82.42813 97.8752 82.66445 97.8752 82.9418 L 96.78535 82.9418 C 96.78535 82.62539 96.89766 82.31973 97.12227 82.02481 C 97.34688 81.72988 97.65156 81.49649 98.03633 81.32461 C 98.4211 81.15274 98.84395 81.0668 99.30489 81.0668 C 100.03536 81.0668 100.60762 81.24941 101.02168 81.61465 C 101.43575 81.97989 101.65059 82.48281 101.66621 83.12344 L 101.66621 86.04141 C 101.66621 86.62344 101.74043 87.08633 101.88887 87.43008 L 101.88887 87.52383 Z M 98.95332 86.69766 C 99.29317 86.69766 99.61543 86.60977 99.92012 86.43399 C 100.22481 86.2582 100.44551 86.02969 100.58223 85.74844 L 100.58223 84.44766 L 99.73262 84.44766 C 98.40449 84.44766 97.74043 84.83633 97.74043 85.61367 C 97.74043 85.95352 97.85371 86.21914 98.08028 86.41055 C 98.30684 86.60196 98.59785 86.69766 98.95332 86.69766 Z" fill="black"/>
      <path d="M 103.10762 84.30117 C 103.10762 83.31289 103.33613 82.52676 103.79317 81.942775 C 104.2502 81.35879 104.85566 81.0668 105.60957 81.0668 C 106.38301 81.0668 106.98652 81.34023 107.42012 81.88711 L 107.47285 81.18399 L 108.46309 81.18399 L 108.46309 87.37149 C 108.46309 88.1918 108.21993 88.83828 107.7336 89.31094 C 107.24727 89.7836 106.59395 90.01992 105.77364 90.01992 C 105.3166 90.01992 104.86934 89.92227 104.43184 89.72695 C 103.99434 89.53164 103.66036 89.26407 103.42989 88.92422 L 103.99239 88.27383 C 104.45723 88.84805 105.02559 89.13516 105.69746 89.13516 C 106.22481 89.13516 106.63594 88.98672 106.93086 88.68985 C 107.22579 88.39297 107.37324 87.975 107.37324 87.43594 L 107.37324 86.89102 C 106.93965 87.39102 106.34786 87.64102 105.59785 87.64102 C 104.85566 87.64102 104.25508 87.34219 103.7961 86.74453 C 103.33711 86.14687 103.10762 85.33243 103.10762 84.30117 Z M 104.19746 84.42422 C 104.19746 85.13907 104.34395 85.70059 104.63692 86.10879 C 104.92989 86.517 105.34004 86.7211 105.86739 86.7211 C 106.55098 86.7211 107.05293 86.41055 107.37324 85.78945 L 107.37324 82.89492 C 107.04121 82.28945 106.54317 81.98672 105.8791 81.98672 C 105.35176 81.98672 104.93965 82.1918 104.64278 82.60195 C 104.3459 83.01211 104.19746 83.61953 104.19746 84.42422 Z" fill="black"/>
      <path d="M 112.72871 87.64102 C 111.86933 87.64102 111.17012 87.35879 110.63106 86.79434 C 110.09199 86.22988 109.82246 85.47501 109.82246 84.52969 L 109.82246 84.33047 C 109.82246 83.70156 109.94258 83.14004 110.18281 82.6459 C 110.42305 82.15176 110.75898 81.76504 111.19063 81.48574 C 111.62227 81.20645 112.09004 81.0668 112.59395 81.0668 C 113.41817 81.0668 114.05879 81.33828 114.51582 81.88125 C 114.97286 82.42422 115.20137 83.20156 115.20137 84.21328 L 115.20137 84.66445 L 110.90645 84.66445 C 110.92207 85.28946 111.10469 85.79434 111.4543 86.1791 C 111.80391 86.56387 112.24824 86.75625 112.78731 86.75625 C 113.17012 86.75625 113.49434 86.67813 113.75996 86.52188 C 114.02559 86.36563 114.25801 86.1586 114.45723 85.90078 L 115.11934 86.41641 C 114.58809 87.23282 113.79122 87.64102 112.72871 87.64102 Z M 112.59395 81.95742 C 112.15645 81.95742 111.78926 82.1166 111.49239 82.43496 C 111.19551 82.75332 111.01192 83.19961 110.9416 83.77383 L 114.11739 83.77383 L 114.11739 83.6918 C 114.08614 83.14101 113.9377 82.71426 113.67207 82.41153 C 113.40645 82.10879 113.04708 81.95742 112.59395 81.95742 Z" fill="black"/>
      <path d="M 211.67359 74.06383 L 211.67359 65.53258 L 214.0818 65.53258 C 214.82398 65.53258 215.48022 65.69664 216.05054 66.02477 C 216.62085 66.35289 217.06128 66.81969 217.37183 67.42516 C 217.68238 68.03063 217.8396 68.725935 217.8435 69.511095 L 217.8435 70.05602 C 217.8435 70.86071 217.68824 71.56578 217.3777 72.17125 C 217.06714 72.77672 216.62378 73.24156 216.0476 73.56578 C 215.47143 73.89 214.80054 74.05602 214.03491 74.06383 Z M 212.79859 66.45836 L 212.79859 73.14391 L 213.98218 73.14391 C 214.84937 73.14391 215.52417 72.87438 216.0066 72.33531 C 216.48902 71.79625 216.73023 71.02868 216.73023 70.03258 L 216.73023 69.53453 C 216.73023 68.56578 216.5027 67.812856 216.0476 67.27574 C 215.59253 66.73863 214.94703 66.46617 214.11109 66.45836 Z" fill="#212121"/>
      <path d="M 222.00366 74.18102 C 221.14428 74.18102 220.44507 73.89879 219.906 73.33434 C 219.36694 72.76988 219.09741 72.01501 219.09741 71.06969 L 219.09741 70.87047 C 219.09741 70.24156 219.21753 69.68004 219.45777 69.1859 C 219.698 68.69176 220.03394 68.30504 220.46558 68.02574 C 220.89722 67.746446 221.365 67.6068 221.8689 67.6068 C 222.69312 67.6068 223.33374 67.87828 223.79077 68.42125 C 224.2478 68.96422 224.47632 69.74156 224.47632 70.75328 L 224.47632 71.204455 L 220.1814 71.204455 C 220.19702 71.82946 220.37964 72.334336 220.72925 72.7191 C 221.07886 73.10387 221.5232 73.29625 222.06226 73.29625 C 222.44507 73.29625 222.7693 73.21813 223.03491 73.06188 C 223.30054 72.90563 223.53296 72.6986 223.73218 72.44078 L 224.3943 72.95641 C 223.86304 73.77282 223.06617 74.18102 222.00366 74.18102 Z M 221.8689 68.49742 C 221.4314 68.49742 221.0642 68.6566 220.76734 68.97496 C 220.47046 69.29332 220.28687 69.73961 220.21655 70.31383 L 223.39234 70.31383 L 223.39234 70.2318 C 223.36109 69.681015 223.21265 69.25426 222.94702 68.951525 C 222.6814 68.64879 222.32203 68.49742 221.8689 68.49742 Z" fill="#212121"/>
      <path d="M 231.0857 70.96422 C 231.0857 71.92907 230.865 72.706405 230.42359 73.29625 C 229.98218 73.8861 229.38453 74.18102 228.63062 74.18102 C 227.86108 74.18102 227.25562 73.93688 226.8142 73.448595 L 226.8142 76.50133 L 225.73023 76.50133 L 225.73023 67.72399 L 226.72046 67.72399 L 226.7732 68.42711 C 227.2146 67.88023 227.82788 67.6068 228.61304 67.6068 C 229.37476 67.6068 229.9773 67.893905 230.42066 68.46813 C 230.86402 69.04235 231.0857 69.84117 231.0857 70.86461 Z M 230.0017 70.84117 C 230.0017 70.12633 229.84937 69.56188 229.54468 69.147814 C 229.24 68.73375 228.82203 68.52672 228.29077 68.52672 C 227.63452 68.52672 227.14234 68.81773 226.8142 69.39977 L 226.8142 72.42906 C 227.13843 73.00719 227.63452 73.29625 228.3025 73.29625 C 228.82203 73.29625 229.2351 73.0902 229.54175 72.67809 C 229.8484 72.26598 230.0017 71.65368 230.0017 70.84117 Z" fill="#212121"/>
      <rect x="232.5564" y="65.06383" width="1.0839844" height="9" fill="#212121"/>
      <path d="M 235.08765 70.83531 C 235.08765 70.21422 235.20972 69.65563 235.45386 69.15953 C 235.698 68.66344 236.03784 68.28063 236.4734 68.011095 C 236.90894 67.74156 237.406 67.6068 237.9646 67.6068 C 238.8279 67.6068 239.52612 67.90562 240.05933 68.50328 C 240.59253 69.10094 240.85913 69.89586 240.85913 70.88805 L 240.85913 70.96422 C 240.85913 71.58141 240.74097 72.13512 240.50464 72.62535 C 240.2683 73.11559 239.93042 73.49742 239.49097 73.77086 C 239.0515 74.0443 238.54664 74.18102 237.97632 74.18102 C 237.11694 74.18102 236.42066 73.88219 235.88745 73.28453 C 235.35425 72.68687 235.08765 71.89587 235.08765 70.91149 Z M 236.1775 70.96422 C 236.1775 71.66735 236.34058 72.2318 236.66675 72.65758 C 236.99292 73.08336 237.42944 73.29625 237.97632 73.29625 C 238.5271 73.29625 238.9646 73.08043 239.28882 72.64879 C 239.61304 72.21715 239.77515 71.61266 239.77515 70.83531 C 239.77515 70.14 239.6101 69.57653 239.28003 69.144884 C 238.94995 68.71324 238.51148 68.49742 237.9646 68.49742 C 237.42944 68.49742 236.9978 68.71031 236.66968 69.136095 C 236.34155 69.56188 236.1775 70.17125 236.1775 70.96422 Z" fill="#212121"/>
      <path d="M 244.20484 72.47594 L 245.6814 67.72399 L 246.84155 67.72399 L 244.29273 75.042345 C 243.8982 76.09704 243.27125 76.62438 242.41187 76.62438 L 242.2068 76.6068 L 241.8025 76.53063 L 241.8025 75.65172 L 242.09546 75.67516 C 242.46265 75.67516 242.74878 75.60094 242.95386 75.4525 C 243.15894 75.30406 243.32788 75.03258 243.4607 74.63805 L 243.70093 73.99352 L 241.4392 67.72399 L 242.6228 67.72399 Z" fill="#212121"/>
      <path d="M 252.24976 66.18883 L 252.24976 67.72399 L 253.43335 67.72399 L 253.43335 68.56188 L 252.24976 68.56188 L 252.24976 72.49352 C 252.24976 72.747425 252.3025 72.93785 252.40796 73.06481 C 252.51343 73.19176 252.69312 73.25524 252.94702 73.25524 C 253.07202 73.25524 253.2439 73.2318 253.46265 73.18492 L 253.46265 74.06383 C 253.1775 74.141955 252.90015 74.18102 252.63062 74.18102 C 252.14624 74.18102 251.781 74.03453 251.5349 73.74156 C 251.28882 73.44859 251.16577 73.03258 251.16577 72.49352 L 251.16577 68.56188 L 250.01148 68.56188 L 250.01148 67.72399 L 251.16577 67.72399 L 251.16577 66.18883 Z" fill="#212121"/>
      <path d="M 254.24195 70.83531 C 254.24195 70.21422 254.364 69.65563 254.60816 69.15953 C 254.8523 68.66344 255.19214 68.28063 255.6277 68.011095 C 256.06324 67.74156 256.5603 67.6068 257.1189 67.6068 C 257.98218 67.6068 258.68042 67.90562 259.21363 68.50328 C 259.74683 69.10094 260.01343 69.89586 260.01343 70.88805 L 260.01343 70.96422 C 260.01343 71.58141 259.89527 72.13512 259.65894 72.62535 C 259.4226 73.11559 259.08472 73.49742 258.64527 73.77086 C 258.2058 74.0443 257.70093 74.18102 257.13062 74.18102 C 256.27124 74.18102 255.57496 73.88219 255.04175 73.28453 C 254.50854 72.68687 254.24195 71.89587 254.24195 70.91149 Z M 255.3318 70.96422 C 255.3318 71.66735 255.49487 72.2318 255.82105 72.65758 C 256.14722 73.08336 256.58374 73.29625 257.13062 73.29625 C 257.6814 73.29625 258.1189 73.08043 258.44312 72.64879 C 258.76734 72.21715 258.92945 71.61266 258.92945 70.83531 C 258.92945 70.14 258.7644 69.57653 258.43433 69.144884 C 258.10425 68.71324 257.66578 68.49742 257.1189 68.49742 C 256.58374 68.49742 256.1521 68.71031 255.82398 69.136095 C 255.49585 69.56188 255.3318 70.17125 255.3318 70.96422 Z" fill="#212121"/>
      <path d="M 224.2185 85.3568 C 224.11304 86.25915 223.78003 86.95543 223.21948 87.44567 C 222.65893 87.9359 221.91383 88.18102 220.98413 88.18102 C 219.97632 88.18102 219.1687 87.81969 218.56128 87.09703 C 217.95386 86.37437 217.65015 85.40759 217.65015 84.19664 L 217.65015 83.37633 C 217.65015 82.58336 217.79175 81.8861 218.07495 81.28453 C 218.35816 80.68297 218.75952 80.22106 219.27905 79.89879 C 219.7986 79.57652 220.40015 79.41539 221.08374 79.41539 C 221.99 79.41539 222.71655 79.66832 223.26343 80.17418 C 223.8103 80.68004 224.12866 81.38023 224.2185 82.27477 L 223.08765 82.27477 C 222.99 81.59508 222.77808 81.10289 222.4519 80.7982 C 222.12573 80.49352 221.66968 80.34117 221.08374 80.34117 C 220.365 80.34117 219.80152 80.6068 219.3933 81.13805 C 218.9851 81.6693 218.781 82.42515 218.781 83.40563 L 218.781 84.2318 C 218.781 85.15758 218.97437 85.89391 219.36109 86.44078 C 219.7478 86.98766 220.28882 87.2611 220.98413 87.2611 C 221.60914 87.2611 222.08862 87.1195 222.4226 86.83629 C 222.7566 86.55309 222.97827 86.05993 223.08765 85.3568 Z" fill="#212121"/>
      <path d="M 229.4978 88.06383 C 229.4353 87.93883 229.38452 87.71618 229.34546 87.39586 C 228.84155 87.9193 228.24 88.18102 227.54077 88.18102 C 226.91577 88.18102 226.40308 88.00426 226.0027 87.65074 C 225.6023 87.29723 225.4021 86.84899 225.4021 86.30602 C 225.4021 85.64586 225.65308 85.13317 226.15503 84.76793 C 226.657 84.4027 227.36303 84.22008 228.2732 84.22008 L 229.32788 84.22008 L 229.32788 83.72203 C 229.32788 83.34312 229.2146 83.04137 228.98804 82.81676 C 228.76148 82.59215 228.4275 82.47985 227.98609 82.47985 C 227.59937 82.47985 227.27515 82.5775 227.01343 82.77281 C 226.7517 82.96813 226.62085 83.20445 226.62085 83.4818 L 225.531 83.4818 C 225.531 83.16539 225.6433 82.85973 225.86792 82.56481 C 226.09253 82.26988 226.39722 82.03649 226.78198 81.86461 C 227.16675 81.69274 227.5896 81.6068 228.05054 81.6068 C 228.781 81.6068 229.35327 81.78941 229.76734 82.15465 C 230.1814 82.51989 230.39624 83.02281 230.41187 83.66344 L 230.41187 86.58141 C 230.41187 87.16344 230.48609 87.62633 230.63452 87.97008 L 230.63452 88.06383 Z M 227.69898 87.23766 C 228.03882 87.23766 228.36108 87.14977 228.66577 86.97399 C 228.97046 86.7982 229.19116 86.56969 229.32788 86.28844 L 229.32788 84.98766 L 228.47827 84.98766 C 227.15014 84.98766 226.48609 85.37633 226.48609 86.15367 C 226.48609 86.49352 226.59937 86.75914 226.82593 86.95055 C 227.0525 87.14196 227.3435 87.23766 227.69898 87.23766 Z" fill="#212121"/>
      <path d="M 233.13648 81.72399 L 233.17163 82.52086 C 233.656 81.91148 234.28882 81.6068 235.07007 81.6068 C 236.40992 81.6068 237.0857 82.36265 237.09741 83.87438 L 237.09741 88.06383 L 236.01343 88.06383 L 236.01343 83.86852 C 236.00952 83.41148 235.90503 83.0736 235.69995 82.85485 C 235.49487 82.63609 235.17554 82.52672 234.74195 82.52672 C 234.39038 82.52672 234.0818 82.62047 233.81616 82.80797 C 233.55054 82.99547 233.3435 83.24156 233.19507 83.54625 L 233.19507 88.06383 L 232.11109 88.06383 L 232.11109 81.72399 Z" fill="#212121"/>
      <path d="M 242.64624 88.06383 C 242.58374 87.93883 242.53296 87.71618 242.4939 87.39586 C 241.99 87.9193 241.38843 88.18102 240.6892 88.18102 C 240.0642 88.18102 239.55152 88.00426 239.15113 87.65074 C 238.75073 87.29723 238.55054 86.84899 238.55054 86.30602 C 238.55054 85.64586 238.8015 85.13317 239.30347 84.76793 C 239.80542 84.4027 240.51147 84.22008 241.42163 84.22008 L 242.47632 84.22008 L 242.47632 83.72203 C 242.47632 83.34312 242.36304 83.04137 242.13648 82.81676 C 241.9099 82.59215 241.57593 82.47985 241.13452 82.47985 C 240.7478 82.47985 240.4236 82.5775 240.16187 82.77281 C 239.90015 82.96813 239.7693 83.20445 239.7693 83.4818 L 238.67945 83.4818 C 238.67945 83.16539 238.79175 82.85973 239.01636 82.56481 C 239.24097 82.26988 239.54565 82.03649 239.93042 81.86461 C 240.3152 81.69274 240.73804 81.6068 241.19898 81.6068 C 241.92945 81.6068 242.5017 81.78941 242.91577 82.15465 C 243.32984 82.51989 243.54468 83.02281 243.5603 83.66344 L 243.5603 86.58141 C 243.5603 87.16344 243.63452 87.62633 243.78296 87.97008 L 243.78296 88.06383 Z M 240.8474 87.23766 C 241.18726 87.23766 241.50952 87.14977 241.8142 86.97399 C 242.1189 86.7982 242.3396 86.56969 242.47632 86.28844 L 242.47632 84.98766 L 241.6267 84.98766 C 240.29858 84.98766 239.63452 85.37633 239.63452 86.15367 C 239.63452 86.49352 239.7478 86.75914 239.97437 86.95055 C 240.20093 87.14196 240.49194 87.23766 240.8474 87.23766 Z" fill="#212121"/>
      <path d="M 248.32398 82.69664 C 248.1599 82.6693 247.98218 82.65563 247.79077 82.65563 C 247.07983 82.65563 246.59742 82.95836 246.3435 83.56383 L 246.3435 88.06383 L 245.25952 88.06383 L 245.25952 81.72399 L 246.3142 81.72399 L 246.3318 82.45641 C 246.68726 81.89 247.19116 81.6068 247.8435 81.6068 C 248.05445 81.6068 248.2146 81.63414 248.32398 81.68883 Z" fill="#212121"/>
      <path d="M 251.49976 86.47594 L 252.97632 81.72399 L 254.13648 81.72399 L 251.58765 89.04235 C 251.19312 90.09704 250.56617 90.62438 249.7068 90.62438 L 249.5017 90.6068 L 249.0974 90.53063 L 249.0974 89.65172 L 249.39038 89.67516 C 249.75757 89.67516 250.0437 89.60094 250.24878 89.4525 C 250.45386 89.30406 250.6228 89.03258 250.75562 88.63805 L 250.99585 87.99352 L 248.73413 81.72399 L 249.91773 81.72399 Z" fill="#212121"/>
      <path d="M 336.8147 70.29625 L 333.23464 70.29625 L 333.23464 74.06383 L 332.10964 74.06383 L 332.10964 65.53258 L 337.3948 65.53258 L 337.3948 66.45836 L 333.23464 66.45836 L 333.23464 69.37633 L 336.8147 69.37633 Z" fill="#212121"/>
      <path d="M 342.3577 73.43688 C 341.9358 73.93297 341.31667 74.18102 340.50026 74.18102 C 339.82448 74.18102 339.30983 73.98473 338.9563 73.59215 C 338.6028 73.19957 338.4241 72.61852 338.4202 71.84899 L 338.4202 67.72399 L 339.50417 67.72399 L 339.50417 71.81969 C 339.50417 72.78063 339.8948 73.261095 340.67604 73.261095 C 341.50417 73.261095 342.05495 72.952505 342.3284 72.33531 L 342.3284 67.72399 L 343.41237 67.72399 L 343.41237 74.06383 L 342.38112 74.06383 Z" fill="#212121"/>
      <path d="M 346.08425 67.72399 L 346.1194 68.52086 C 346.6038 67.91148 347.2366 67.6068 348.01784 67.6068 C 349.3577 67.6068 350.03347 68.36265 350.0452 69.87438 L 350.0452 74.06383 L 348.9612 74.06383 L 348.9612 69.86852 C 348.9573 69.41148 348.8528 69.0736 348.64772 68.854845 C 348.44264 68.636094 348.1233 68.52672 347.6897 68.52672 C 347.33815 68.52672 347.02956 68.62047 346.76393 68.80797 C 346.4983 68.99547 346.29128 69.24156 346.14284 69.54625 L 346.14284 74.06383 L 345.05886 74.06383 L 345.05886 67.72399 Z" fill="#212121"/>
      <path d="M 354.2229 73.29625 C 354.60964 73.29625 354.94753 73.179065 355.2366 72.94469 C 355.52565 72.71031 355.6858 72.41735 355.71706 72.06578 L 356.74245 72.06578 C 356.7229 72.42907 356.5979 72.774766 356.36745 73.10289 C 356.137 73.43102 355.82937 73.692735 355.4446 73.88805 C 355.05983 74.08336 354.6526 74.18102 354.2229 74.18102 C 353.35963 74.18102 352.6731 73.89293 352.16335 73.31676 C 351.6536 72.740585 351.3987 71.95251 351.3987 70.9525 L 351.3987 70.77086 C 351.3987 70.15367 351.512 69.60485 351.73854 69.12438 C 351.9651 68.643906 352.2903 68.27086 352.71413 68.00524 C 353.13796 67.73961 353.63893 67.6068 354.21706 67.6068 C 354.928 67.6068 355.5188 67.81969 355.9895 68.24547 C 356.46023 68.67125 356.7112 69.22398 356.74245 69.90367 L 355.71706 69.90367 C 355.6858 69.493515 355.53054 69.156605 355.25124 68.89293 C 354.97194 68.62926 354.6272 68.49742 354.21706 68.49742 C 353.66627 68.49742 353.23952 68.69566 352.9368 69.09215 C 352.63405 69.48864 352.4827 70.06187 352.4827 70.81188 L 352.4827 71.016955 C 352.4827 71.74743 352.63307 72.30992 352.93386 72.704455 C 353.23464 73.09899 353.66432 73.29625 354.2229 73.29625 Z" fill="#212121"/>
      <path d="M 359.4319 66.18883 L 359.4319 67.72399 L 360.6155 67.72399 L 360.6155 68.56188 L 359.4319 68.56188 L 359.4319 72.49352 C 359.4319 72.747425 359.48464 72.93785 359.5901 73.06481 C 359.69558 73.19176 359.87526 73.25524 360.12917 73.25524 C 360.25417 73.25524 360.42604 73.2318 360.6448 73.18492 L 360.6448 74.06383 C 360.35964 74.141955 360.0823 74.18102 359.81276 74.18102 C 359.3284 74.18102 358.96315 74.03453 358.71706 73.74156 C 358.47096 73.44859 358.3479 73.03258 358.3479 72.49352 L 358.3479 68.56188 L 357.19362 68.56188 L 357.19362 67.72399 L 358.3479 67.72399 L 358.3479 66.18883 Z" fill="#212121"/>
      <path d="M 363.05886 74.06383 L 361.97487 74.06383 L 361.97487 67.72399 L 363.05886 67.72399 Z M 361.887 66.042345 C 361.887 65.86656 361.9407 65.71813 362.0481 65.59703 C 362.15554 65.47594 362.3147 65.41539 362.52565 65.41539 C 362.7366 65.41539 362.89675 65.47594 363.0061 65.59703 C 363.1155 65.71813 363.1702 65.86656 363.1702 66.042345 C 363.1702 66.21813 363.1155 66.36461 363.0061 66.4818 C 362.89675 66.59899 362.7366 66.65758 362.52565 66.65758 C 362.3147 66.65758 362.15554 66.59899 362.0481 66.4818 C 361.9407 66.36461 361.887 66.21813 361.887 66.042345 Z" fill="#212121"/>
      <path d="M 364.5061 70.83531 C 364.5061 70.21422 364.6282 69.65563 364.87233 69.15953 C 365.11647 68.66344 365.4563 68.28063 365.89186 68.011095 C 366.3274 67.74156 366.82448 67.6068 367.38307 67.6068 C 368.24636 67.6068 368.9446 67.90562 369.4778 68.50328 C 370.011 69.10094 370.2776 69.89586 370.2776 70.88805 L 370.2776 70.96422 C 370.2776 71.58141 370.15944 72.13512 369.9231 72.62535 C 369.6868 73.11559 369.3489 73.49742 368.90944 73.77086 C 368.47 74.0443 367.9651 74.18102 367.3948 74.18102 C 366.5354 74.18102 365.83913 73.88219 365.30593 73.28453 C 364.7727 72.68687 364.5061 71.89587 364.5061 70.91149 Z M 365.59597 70.96422 C 365.59597 71.66735 365.75905 72.2318 366.08522 72.65758 C 366.4114 73.08336 366.8479 73.29625 367.3948 73.29625 C 367.94558 73.29625 368.38307 73.08043 368.7073 72.64879 C 369.0315 72.21715 369.1936 71.61266 369.1936 70.83531 C 369.1936 70.14 369.0286 69.57653 368.6985 69.144884 C 368.36842 68.71324 367.92995 68.49742 367.38307 68.49742 C 366.8479 68.49742 366.4163 68.71031 366.08815 69.136095 C 365.76003 69.56188 365.59597 70.17125 365.59597 70.96422 Z" fill="#212121"/>
      <path d="M 372.66237 67.72399 L 372.69753 68.52086 C 373.1819 67.91148 373.8147 67.6068 374.59597 67.6068 C 375.9358 67.6068 376.6116 68.36265 376.6233 69.87438 L 376.6233 74.06383 L 375.53932 74.06383 L 375.53932 69.86852 C 375.5354 69.41148 375.43093 69.0736 375.22585 68.854845 C 375.02077 68.636094 374.70144 68.52672 374.26784 68.52672 C 373.91628 68.52672 373.6077 68.62047 373.34206 68.80797 C 373.07643 68.99547 372.8694 69.24156 372.72097 69.54625 L 372.72097 74.06383 L 371.637 74.06383 L 371.637 67.72399 Z" fill="#212121"/>
      <path d="M 382.17214 74.06383 C 382.10964 73.93883 382.05886 73.716175 382.0198 73.39586 C 381.5159 73.9193 380.91433 74.18102 380.2151 74.18102 C 379.5901 74.18102 379.0774 74.00426 378.677 73.65074 C 378.27663 73.29723 378.07643 72.84899 378.07643 72.30602 C 378.07643 71.64586 378.3274 71.13317 378.82936 70.76793 C 379.3313 70.402695 380.03737 70.22008 380.94753 70.22008 L 382.0022 70.22008 L 382.0022 69.72203 C 382.0022 69.343125 381.88894 69.04137 381.66237 68.81676 C 381.4358 68.59215 381.10183 68.479845 380.6604 68.479845 C 380.2737 68.479845 379.9495 68.5775 379.68776 68.772814 C 379.42604 68.96813 379.2952 69.20445 379.2952 69.4818 L 378.20534 69.4818 C 378.20534 69.16539 378.31764 68.85973 378.54225 68.56481 C 378.76686 68.26988 379.07155 68.03649 379.4563 67.86461 C 379.8411 67.692735 380.26393 67.6068 380.72487 67.6068 C 381.45534 67.6068 382.0276 67.78941 382.44167 68.15465 C 382.85573 68.51989 383.07057 69.02281 383.0862 69.66344 L 383.0862 72.58141 C 383.0862 73.16344 383.1604 73.62633 383.30886 73.97008 L 383.30886 74.06383 Z M 380.3733 73.23766 C 380.71315 73.23766 381.0354 73.14977 381.3401 72.97399 C 381.6448 72.7982 381.8655 72.56969 382.0022 72.28844 L 382.0022 70.98766 L 381.1526 70.98766 C 379.82447 70.98766 379.1604 71.37633 379.1604 72.15367 C 379.1604 72.49352 379.2737 72.75914 379.50026 72.95055 C 379.72683 73.14196 380.01784 73.23766 380.3733 73.23766 Z" fill="#212121"/>
      <rect x="384.87917" y="65.06383" width="1.0839844" height="9" fill="#212121"/>
      <path d="M 396.39284 66.45836 L 393.65065 66.45836 L 393.65065 74.06383 L 392.5315 74.06383 L 392.5315 66.45836 L 389.7952 66.45836 L 389.7952 65.53258 L 396.39284 65.53258 Z" fill="#212121"/>
      <path d="M 399.59206 74.18102 C 398.7327 74.18102 398.03347 73.89879 397.4944 73.33434 C 396.95534 72.76988 396.6858 72.01501 396.6858 71.06969 L 396.6858 70.87047 C 396.6858 70.24156 396.80592 69.68004 397.04616 69.1859 C 397.2864 68.69176 397.62233 68.30504 398.05397 68.02574 C 398.4856 67.746446 398.9534 67.6068 399.4573 67.6068 C 400.2815 67.6068 400.92213 67.87828 401.37917 68.42125 C 401.8362 68.96422 402.0647 69.74156 402.0647 70.75328 L 402.0647 71.204455 L 397.7698 71.204455 C 397.7854 71.82946 397.96803 72.334336 398.31764 72.7191 C 398.66726 73.10387 399.1116 73.29625 399.65065 73.29625 C 400.03347 73.29625 400.3577 73.21813 400.6233 73.06188 C 400.88894 72.90563 401.12135 72.6986 401.32057 72.44078 L 401.9827 72.95641 C 401.45143 73.77282 400.65456 74.18102 399.59206 74.18102 Z M 399.4573 68.49742 C 399.0198 68.49742 398.6526 68.6566 398.35573 68.97496 C 398.05885 69.29332 397.87526 69.73961 397.80495 70.31383 L 400.98073 70.31383 L 400.98073 70.2318 C 400.9495 69.681015 400.80104 69.25426 400.5354 68.951525 C 400.2698 68.64879 399.9104 68.49742 399.4573 68.49742 Z" fill="#212121"/>
      <path d="M 407.01003 72.38219 C 407.01003 72.08922 406.8997 71.86168 406.67897 71.69957 C 406.45827 71.53746 406.0735 71.397815 405.5247 71.28063 C 404.97585 71.16344 404.5403 71.022815 404.21804 70.85875 C 403.89577 70.69469 403.6575 70.49938 403.5032 70.27281 C 403.3489 70.04625 403.27175 69.77672 403.27175 69.46422 C 403.27175 68.94469 403.49147 68.50524 403.93093 68.14586 C 404.3704 67.786484 404.9319 67.6068 405.6155 67.6068 C 406.33425 67.6068 406.91725 67.79234 407.3645 68.16344 C 407.8118 68.534535 408.0354 69.00914 408.0354 69.58727 L 406.94557 69.58727 C 406.94557 69.29039 406.8196 69.03453 406.56764 68.81969 C 406.3157 68.604844 405.9983 68.49742 405.6155 68.49742 C 405.22096 68.49742 404.91237 68.58336 404.6897 68.75524 C 404.46706 68.92711 404.35573 69.15172 404.35573 69.429064 C 404.35573 69.690784 404.45925 69.88805 404.6663 70.02086 C 404.8733 70.153674 405.24733 70.28063 405.78835 70.40172 C 406.32937 70.522815 406.76784 70.667345 407.1038 70.83531 C 407.4397 71.00328 407.68874 71.20543 407.85085 71.44176 C 408.01296 71.67809 408.094 71.96617 408.094 72.30602 C 408.094 72.87243 407.86745 73.32652 407.41432 73.66832 C 406.9612 74.01012 406.3733 74.18102 405.65065 74.18102 C 405.14284 74.18102 404.6936 74.091174 404.303 73.91149 C 403.91237 73.7318 403.6067 73.48082 403.386 73.15856 C 403.1653 72.83629 403.05495 72.48766 403.05495 72.11266 L 404.13893 72.11266 C 404.15847 72.47594 404.30397 72.76402 404.57546 72.97692 C 404.84694 73.18981 405.20534 73.29625 405.65065 73.29625 C 406.0608 73.29625 406.3899 73.213245 406.63796 73.04723 C 406.886 72.88121 407.01003 72.65953 407.01003 72.38219 Z" fill="#212121"/>
      <path d="M 410.97682 66.18883 L 410.97682 67.72399 L 412.1604 67.72399 L 412.1604 68.56188 L 410.97682 68.56188 L 410.97682 72.49352 C 410.97682 72.747425 411.02956 72.93785 411.13503 73.06481 C 411.2405 73.19176 411.4202 73.25524 411.6741 73.25524 C 411.7991 73.25524 411.97096 73.2318 412.1897 73.18492 L 412.1897 74.06383 C 411.90456 74.141955 411.6272 74.18102 411.3577 74.18102 C 410.8733 74.18102 410.5081 74.03453 410.262 73.74156 C 410.0159 73.44859 409.89284 73.03258 409.89284 72.49352 L 409.89284 68.56188 L 408.73854 68.56188 L 408.73854 67.72399 L 409.89284 67.72399 L 409.89284 66.18883 Z" fill="#212121"/>
      <path d="M 417.11745 72.38219 C 417.11745 72.08922 417.0071 71.86168 416.7864 71.69957 C 416.5657 71.53746 416.18093 71.397815 415.6321 71.28063 C 415.08327 71.16344 414.6477 71.022815 414.32546 70.85875 C 414.0032 70.69469 413.7649 70.49938 413.6106 70.27281 C 413.4563 70.04625 413.37917 69.77672 413.37917 69.46422 C 413.37917 68.94469 413.5989 68.50524 414.03835 68.14586 C 414.4778 67.786484 415.0393 67.6068 415.7229 67.6068 C 416.44167 67.6068 417.02467 67.79234 417.47194 68.16344 C 417.9192 68.534535 418.14284 69.00914 418.14284 69.58727 L 417.053 69.58727 C 417.053 69.29039 416.927 69.03453 416.67507 68.81969 C 416.4231 68.604844 416.10573 68.49742 415.7229 68.49742 C 415.3284 68.49742 415.0198 68.58336 414.79714 68.75524 C 414.5745 68.92711 414.46315 69.15172 414.46315 69.429064 C 414.46315 69.690784 414.56667 69.88805 414.7737 70.02086 C 414.98073 70.153674 415.35475 70.28063 415.89577 70.40172 C 416.4368 70.522815 416.87526 70.667345 417.2112 70.83531 C 417.54714 71.00328 417.79616 71.20543 417.95827 71.44176 C 418.1204 71.67809 418.20143 71.96617 418.20143 72.30602 C 418.20143 72.87243 417.97487 73.32652 417.52175 73.66832 C 417.0686 74.01012 416.48073 74.18102 415.75807 74.18102 C 415.25026 74.18102 414.80105 74.091174 414.4104 73.91149 C 414.0198 73.7318 413.71413 73.48082 413.49343 73.15856 C 413.2727 72.83629 413.16237 72.48766 413.16237 72.11266 L 414.24636 72.11266 C 414.2659 72.47594 414.4114 72.76402 414.6829 72.97692 C 414.95436 73.18981 415.31276 73.29625 415.75807 73.29625 C 416.16823 73.29625 416.49733 73.213245 416.7454 73.04723 C 416.99343 72.88121 417.11745 72.65953 417.11745 72.38219 Z" fill="#212121"/>
      <path d="M 422.29714 70.83531 C 422.29714 70.21422 422.4192 69.65563 422.66335 69.15953 C 422.9075 68.66344 423.24733 68.28063 423.6829 68.011095 C 424.11843 67.74156 424.6155 67.6068 425.1741 67.6068 C 426.0374 67.6068 426.7356 67.90562 427.2688 68.50328 C 427.802 69.10094 428.0686 69.89586 428.0686 70.88805 L 428.0686 70.96422 C 428.0686 71.58141 427.95046 72.13512 427.71413 72.62535 C 427.4778 73.11559 427.1399 73.49742 426.70046 73.77086 C 426.261 74.0443 425.7561 74.18102 425.1858 74.18102 C 424.32643 74.18102 423.63015 73.88219 423.09694 73.28453 C 422.56374 72.68687 422.29714 71.89587 422.29714 70.91149 Z M 423.387 70.96422 C 423.387 71.66735 423.55007 72.2318 423.87624 72.65758 C 424.2024 73.08336 424.63893 73.29625 425.1858 73.29625 C 425.7366 73.29625 426.1741 73.08043 426.4983 72.64879 C 426.82253 72.21715 426.98464 71.61266 426.98464 70.83531 C 426.98464 70.14 426.8196 69.57653 426.4895 69.144884 C 426.15944 68.71324 425.72097 68.49742 425.1741 68.49742 C 424.63893 68.49742 424.2073 68.71031 423.87917 69.136095 C 423.55104 69.56188 423.387 70.17125 423.387 70.96422 Z" fill="#212121"/>
      <path d="M 429.9612 74.06383 L 429.9612 68.56188 L 428.95925 68.56188 L 428.95925 67.72399 L 429.9612 67.72399 L 429.9612 67.073595 C 429.9612 66.393905 430.14284 65.86852 430.5061 65.49742 C 430.8694 65.12633 431.38307 64.94078 432.04714 64.94078 C 432.29714 64.94078 432.5452 64.973986 432.7913 65.04039 L 432.7327 65.9193 C 432.5491 65.88414 432.3538 65.866564 432.14675 65.866564 C 431.7952 65.866564 431.5237 65.9691 431.3323 66.17418 C 431.1409 66.37926 431.0452 66.6732 431.0452 67.05602 L 431.0452 67.72399 L 432.3987 67.72399 L 432.3987 68.56188 L 431.0452 68.56188 L 431.0452 74.06383 Z" fill="#212121"/>
      <path d="M 337.20143 85.3568 C 337.09596 86.25915 336.76296 86.95543 336.2024 87.44567 C 335.64186 87.9359 334.89675 88.18102 333.96706 88.18102 C 332.95924 88.18102 332.15163 87.81969 331.5442 87.09703 C 330.9368 86.37437 330.63307 85.40759 330.63307 84.19664 L 330.63307 83.37633 C 330.63307 82.58336 330.77467 81.8861 331.05788 81.28453 C 331.3411 80.68297 331.74245 80.22106 332.262 79.89879 C 332.7815 79.57652 333.38307 79.41539 334.06667 79.41539 C 334.97292 79.41539 335.69948 79.66832 336.24636 80.17418 C 336.79323 80.68004 337.1116 81.38023 337.20143 82.27477 L 336.07057 82.27477 C 335.9729 81.59508 335.761 81.10289 335.43483 80.7982 C 335.10866 80.49352 334.6526 80.34117 334.06667 80.34117 C 333.3479 80.34117 332.78444 80.6068 332.37624 81.13805 C 331.96803 81.6693 331.76393 82.42515 331.76393 83.40563 L 331.76393 84.2318 C 331.76393 85.15758 331.9573 85.89391 332.344 86.44078 C 332.73073 86.98766 333.27174 87.2611 333.96706 87.2611 C 334.59206 87.2611 335.07155 87.1195 335.40554 86.83629 C 335.73952 86.55309 335.9612 86.05993 336.07057 85.3568 Z" fill="#212121"/>
      <path d="M 342.48073 88.06383 C 342.41823 87.93883 342.36745 87.71618 342.3284 87.39586 C 341.82448 87.9193 341.22292 88.18102 340.5237 88.18102 C 339.8987 88.18102 339.386 88.00426 338.9856 87.65074 C 338.58522 87.29723 338.38503 86.84899 338.38503 86.30602 C 338.38503 85.64586 338.636 85.13317 339.13796 84.76793 C 339.6399 84.4027 340.34596 84.22008 341.25612 84.22008 L 342.3108 84.22008 L 342.3108 83.72203 C 342.3108 83.34312 342.19753 83.04137 341.97097 82.81676 C 341.7444 82.59215 341.41042 82.47985 340.969 82.47985 C 340.5823 82.47985 340.25808 82.5775 339.99636 82.77281 C 339.73464 82.96813 339.60378 83.20445 339.60378 83.4818 L 338.51393 83.4818 C 338.51393 83.16539 338.62624 82.85973 338.85085 82.56481 C 339.07546 82.26988 339.38014 82.03649 339.7649 81.86461 C 340.14968 81.69274 340.57253 81.6068 341.03347 81.6068 C 341.76394 81.6068 342.3362 81.78941 342.75026 82.15465 C 343.16433 82.51989 343.37917 83.02281 343.3948 83.66344 L 343.3948 86.58141 C 343.3948 87.16344 343.469 87.62633 343.61745 87.97008 L 343.61745 88.06383 Z M 340.6819 87.23766 C 341.02175 87.23766 341.344 87.14977 341.6487 86.97399 C 341.9534 86.7982 342.1741 86.56969 342.3108 86.28844 L 342.3108 84.98766 L 341.4612 84.98766 C 340.13307 84.98766 339.469 85.37633 339.469 86.15367 C 339.469 86.49352 339.5823 86.75914 339.80886 86.95055 C 340.0354 87.14196 340.32643 87.23766 340.6819 87.23766 Z" fill="#212121"/>
      <path d="M 346.1194 81.72399 L 346.15456 82.52086 C 346.63894 81.91148 347.27174 81.6068 348.053 81.6068 C 349.39285 81.6068 350.06862 82.36265 350.08034 83.87438 L 350.08034 88.06383 L 348.99636 88.06383 L 348.99636 83.86852 C 348.99245 83.41148 348.88796 83.0736 348.6829 82.85485 C 348.4778 82.63609 348.15847 82.52672 347.72487 82.52672 C 347.3733 82.52672 347.0647 82.62047 346.7991 82.80797 C 346.53346 82.99547 346.32643 83.24156 346.178 83.54625 L 346.178 88.06383 L 345.094 88.06383 L 345.094 81.72399 Z" fill="#212121"/>
      <path d="M 355.62917 88.06383 C 355.56667 87.93883 355.5159 87.71618 355.47682 87.39586 C 354.9729 87.9193 354.37136 88.18102 353.67214 88.18102 C 353.04713 88.18102 352.53444 88.00426 352.13405 87.65074 C 351.73366 87.29723 351.53347 86.84899 351.53347 86.30602 C 351.53347 85.64586 351.78444 85.13317 352.2864 84.76793 C 352.78835 84.4027 353.4944 84.22008 354.40456 84.22008 L 355.45925 84.22008 L 355.45925 83.72203 C 355.45925 83.34312 355.34597 83.04137 355.1194 82.81676 C 354.89284 82.59215 354.55886 82.47985 354.11745 82.47985 C 353.73073 82.47985 353.4065 82.5775 353.1448 82.77281 C 352.88307 82.96813 352.7522 83.20445 352.7522 83.4818 L 351.66237 83.4818 C 351.66237 83.16539 351.77468 82.85973 351.9993 82.56481 C 352.2239 82.26988 352.5286 82.03649 352.91335 81.86461 C 353.2981 81.69274 353.72096 81.6068 354.1819 81.6068 C 354.91238 81.6068 355.48463 81.78941 355.8987 82.15465 C 356.31276 82.51989 356.5276 83.02281 356.54323 83.66344 L 356.54323 86.58141 C 356.54323 87.16344 356.61745 87.62633 356.7659 87.97008 L 356.7659 88.06383 Z M 353.83034 87.23766 C 354.1702 87.23766 354.49245 87.14977 354.79714 86.97399 C 355.10183 86.7982 355.32253 86.56969 355.45925 86.28844 L 355.45925 84.98766 L 354.60964 84.98766 C 353.2815 84.98766 352.61745 85.37633 352.61745 86.15367 C 352.61745 86.49352 352.73073 86.75914 352.9573 86.95055 C 353.18386 87.14196 353.47487 87.23766 353.83034 87.23766 Z" fill="#212121"/>
      <path d="M 361.3069 82.69664 C 361.14284 82.6693 360.9651 82.65563 360.7737 82.65563 C 360.06276 82.65563 359.58034 82.95836 359.32643 83.56383 L 359.32643 88.06383 L 358.24245 88.06383 L 358.24245 81.72399 L 359.29714 81.72399 L 359.3147 82.45641 C 359.6702 81.89 360.1741 81.6068 360.82643 81.6068 C 361.03737 81.6068 361.19753 81.63414 361.3069 81.68883 Z" fill="#212121"/>
      <path d="M 364.4827 86.47594 L 365.95925 81.72399 L 367.1194 81.72399 L 364.57057 89.04235 C 364.17604 90.09704 363.5491 90.62438 362.6897 90.62438 L 362.48464 90.6068 L 362.08034 90.53063 L 362.08034 89.65172 L 362.3733 89.67516 C 362.7405 89.67516 363.02663 89.60094 363.2317 89.4525 C 363.4368 89.30406 363.60573 89.03258 363.73854 88.63805 L 363.97878 87.99352 L 361.71706 81.72399 L 362.90065 81.72399 Z" fill="#212121"/>
      <path d="M 371.22682 88.06383 L 371.22682 79.53258 L 373.63503 79.53258 C 374.3772 79.53258 375.03346 79.69664 375.6038 80.02477 C 376.1741 80.35289 376.6145 80.81969 376.92507 81.42516 C 377.2356 82.03063 377.39284 82.72594 377.39675 83.5111 L 377.39675 84.05602 C 377.39675 84.86071 377.24147 85.56578 376.93093 86.17125 C 376.6204 86.77672 376.17702 87.24156 375.60085 87.56578 C 375.02467 87.89 374.3538 88.05602 373.58815 88.06383 Z M 372.35182 80.45836 L 372.35182 87.14391 L 373.5354 87.14391 C 374.4026 87.14391 375.0774 86.87438 375.55983 86.33531 C 376.04226 85.79625 376.28347 85.02868 376.28347 84.03258 L 376.28347 83.53453 C 376.28347 82.56578 376.05593 81.81286 375.60085 81.27574 C 375.14577 80.73863 374.50027 80.46617 373.66432 80.45836 Z" fill="#212121"/>
      <path d="M 381.5569 88.18102 C 380.69752 88.18102 379.9983 87.89879 379.45925 87.33434 C 378.9202 86.76988 378.65065 86.01501 378.65065 85.06969 L 378.65065 84.87047 C 378.65065 84.24156 378.77077 83.68004 379.011 83.1859 C 379.25124 82.69176 379.58717 82.30504 380.0188 82.02574 C 380.45046 81.74645 380.91823 81.6068 381.42214 81.6068 C 382.24636 81.6068 382.887 81.87828 383.344 82.42125 C 383.80105 82.96422 384.02956 83.74156 384.02956 84.75328 L 384.02956 85.20445 L 379.73464 85.20445 C 379.75026 85.82946 379.9329 86.33434 380.2825 86.7191 C 380.6321 87.10387 381.07643 87.29625 381.6155 87.29625 C 381.9983 87.29625 382.32253 87.21813 382.58815 87.06188 C 382.8538 86.90563 383.0862 86.6986 383.2854 86.44078 L 383.94753 86.95641 C 383.41628 87.77282 382.6194 88.18102 381.5569 88.18102 Z M 381.42214 82.49742 C 380.98463 82.49742 380.61745 82.6566 380.32057 82.97496 C 380.0237 83.29332 379.8401 83.73961 379.7698 84.31383 L 382.94557 84.31383 L 382.94557 84.2318 C 382.91432 83.68101 382.7659 83.25426 382.50026 82.95153 C 382.23464 82.64879 381.87526 82.49742 381.42214 82.49742 Z" fill="#212121"/>
      <path d="M 390.63893 84.96422 C 390.63893 85.92907 390.41823 86.7064 389.97682 87.29625 C 389.5354 87.8861 388.93777 88.18102 388.18386 88.18102 C 387.4143 88.18102 386.80886 87.93688 386.36745 87.4486 L 386.36745 90.50133 L 385.28347 90.50133 L 385.28347 81.72399 L 386.2737 81.72399 L 386.32643 82.42711 C 386.76784 81.88023 387.3811 81.6068 388.1663 81.6068 C 388.928 81.6068 389.53053 81.893905 389.9739 82.46813 C 390.41726 83.04235 390.63893 83.84117 390.63893 84.86461 Z M 389.55495 84.84117 C 389.55495 84.12633 389.4026 83.56188 389.0979 83.14781 C 388.79323 82.73375 388.37526 82.52672 387.844 82.52672 C 387.18776 82.52672 386.69558 82.81773 386.36745 83.39977 L 386.36745 86.42906 C 386.69167 87.00719 387.18776 87.29625 387.85573 87.29625 C 388.37526 87.29625 388.78835 87.0902 389.095 86.67809 C 389.40163 86.26598 389.55495 85.65368 389.55495 84.84117 Z" fill="#212121"/>
      <rect x="392.10964" y="79.06383" width="1.0839844" height="9" fill="#212121"/>
      <path d="M 394.6409 84.83531 C 394.6409 84.21422 394.76296 83.65563 395.0071 83.15953 C 395.25124 82.66344 395.5911 82.28063 396.02663 82.0111 C 396.4622 81.74156 396.95924 81.6068 397.51784 81.6068 C 398.38113 81.6068 399.07936 81.90562 399.61257 82.50328 C 400.14577 83.10094 400.41237 83.89586 400.41237 84.88805 L 400.41237 84.96422 C 400.41237 85.58141 400.2942 86.13512 400.0579 86.62535 C 399.82155 87.11559 399.48366 87.49742 399.0442 87.77086 C 398.60475 88.0443 398.09987 88.18102 397.52956 88.18102 C 396.6702 88.18102 395.9739 87.88219 395.4407 87.28453 C 394.9075 86.68687 394.6409 85.89587 394.6409 84.91149 Z M 395.73073 84.96422 C 395.73073 85.66735 395.8938 86.2318 396.22 86.65758 C 396.54616 87.08336 396.9827 87.29625 397.52956 87.29625 C 398.08034 87.29625 398.51784 87.08043 398.84206 86.64879 C 399.1663 86.21715 399.3284 85.61266 399.3284 84.83531 C 399.3284 84.14 399.16335 83.57653 398.83327 83.14488 C 398.5032 82.71324 398.0647 82.49742 397.51784 82.49742 C 396.9827 82.49742 396.55104 82.71031 396.2229 83.1361 C 395.8948 83.56188 395.73073 84.17125 395.73073 84.96422 Z" fill="#212121"/>
      <path d="M 403.75807 86.47594 L 405.23464 81.72399 L 406.3948 81.72399 L 403.84597 89.04235 C 403.45143 90.09704 402.8245 90.62438 401.9651 90.62438 L 401.76003 90.6068 L 401.35573 90.53063 L 401.35573 89.65172 L 401.6487 89.67516 C 402.0159 89.67516 402.302 89.60094 402.5071 89.4525 C 402.7122 89.30406 402.8811 89.03258 403.01393 88.63805 L 403.25417 87.99352 L 400.99245 81.72399 L 402.17604 81.72399 Z" fill="#212121"/>
      <path d="M 408.3811 81.72399 L 408.4104 82.42711 C 408.87526 81.88023 409.5022 81.6068 410.2913 81.6068 C 411.178 81.6068 411.7815 81.94664 412.10182 82.62633 C 412.31276 82.32164 412.58717 82.07555 412.92507 81.88805 C 413.26296 81.70055 413.66237 81.6068 414.1233 81.6068 C 415.51394 81.6068 416.22097 82.34312 416.2444 83.81578 L 416.2444 88.06383 L 415.1604 88.06383 L 415.1604 83.88024 C 415.1604 83.42711 415.0569 83.088245 414.84987 82.86363 C 414.64284 82.63902 414.2952 82.52672 413.8069 82.52672 C 413.40456 82.52672 413.0706 82.64684 412.80495 82.88707 C 412.5393 83.12731 412.38503 83.45055 412.34206 83.8568 L 412.34206 88.06383 L 411.2522 88.06383 L 411.2522 83.90953 C 411.2522 82.98765 410.80105 82.52672 409.8987 82.52672 C 409.18776 82.52672 408.70144 82.82945 408.4397 83.43492 L 408.4397 88.06383 L 407.35573 88.06383 L 407.35573 81.72399 Z" fill="#212121"/>
      <path d="M 420.51003 88.18102 C 419.65065 88.18102 418.95144 87.89879 418.41237 87.33434 C 417.8733 86.76988 417.6038 86.01501 417.6038 85.06969 L 417.6038 84.87047 C 417.6038 84.24156 417.7239 83.68004 417.96413 83.1859 C 418.20436 82.69176 418.5403 82.30504 418.97194 82.02574 C 419.4036 81.74645 419.87135 81.6068 420.37526 81.6068 C 421.1995 81.6068 421.8401 81.87828 422.29714 82.42125 C 422.75417 82.96422 422.9827 83.74156 422.9827 84.75328 L 422.9827 85.20445 L 418.68776 85.20445 C 418.7034 85.82946 418.886 86.33434 419.2356 86.7191 C 419.5852 87.10387 420.02956 87.29625 420.5686 87.29625 C 420.95144 87.29625 421.27565 87.21813 421.5413 87.06188 C 421.8069 86.90563 422.0393 86.6986 422.23854 86.44078 L 422.90065 86.95641 C 422.3694 87.77282 421.57253 88.18102 420.51003 88.18102 Z M 420.37526 82.49742 C 419.93776 82.49742 419.5706 82.6566 419.2737 82.97496 C 418.9768 83.29332 418.79323 83.73961 418.7229 84.31383 L 421.8987 84.31383 L 421.8987 84.2318 C 421.86745 83.68101 421.719 83.25426 421.4534 82.95153 C 421.18776 82.64879 420.8284 82.49742 420.37526 82.49742 Z" fill="#212121"/>
      <path d="M 425.262 81.72399 L 425.29714 82.52086 C 425.7815 81.91148 426.4143 81.6068 427.1956 81.6068 C 428.5354 81.6068 429.2112 82.36265 429.2229 83.87438 L 429.2229 88.06383 L 428.13893 88.06383 L 428.13893 83.86852 C 428.13503 83.41148 428.03054 83.0736 427.82546 82.85485 C 427.6204 82.63609 427.30105 82.52672 426.86745 82.52672 C 426.5159 82.52672 426.2073 82.62047 425.94167 82.80797 C 425.67604 82.99547 425.469 83.24156 425.32057 83.54625 L 425.32057 88.06383 L 424.2366 88.06383 L 424.2366 81.72399 Z" fill="#212121"/>
      <path d="M 432.3284 80.18883 L 432.3284 81.72399 L 433.512 81.72399 L 433.512 82.56188 L 432.3284 82.56188 L 432.3284 86.49352 C 432.3284 86.74742 432.3811 86.93785 432.4866 87.06481 C 432.59206 87.19176 432.77175 87.25524 433.02565 87.25524 C 433.15065 87.25524 433.32253 87.2318 433.5413 87.18492 L 433.5413 88.06383 C 433.2561 88.14196 432.9788 88.18102 432.70925 88.18102 C 432.22487 88.18102 431.85964 88.03453 431.61354 87.74156 C 431.36745 87.44859 431.2444 87.03258 431.2444 86.49352 L 431.2444 82.56188 L 430.0901 82.56188 L 430.0901 81.72399 L 431.2444 81.72399 L 431.2444 80.18883 Z" fill="#212121"/>
      <path d="M 507.63485 65.53258 L 510.4239 72.49352 L 513.213 65.53258 L 514.67196 65.53258 L 514.67196 74.06383 L 513.54696 74.06383 L 513.54696 70.74156 L 513.6524 67.15563 L 510.85165 74.06383 L 509.9903 74.06383 L 507.1954 67.173205 L 507.3067 70.74156 L 507.3067 74.06383 L 506.1817 74.06383 L 506.1817 65.53258 Z" fill="#212121"/>
      <path d="M 520.4024 74.06383 C 520.3399 73.93883 520.28915 73.716175 520.2501 73.39586 C 519.7462 73.9193 519.1446 74.18102 518.4454 74.18102 C 517.8204 74.18102 517.3077 74.00426 516.9073 73.65074 C 516.5069 73.29723 516.3067 72.84899 516.3067 72.30602 C 516.3067 71.64586 516.5577 71.13317 517.05965 70.76793 C 517.5616 70.402695 518.26766 70.22008 519.1778 70.22008 L 520.2325 70.22008 L 520.2325 69.72203 C 520.2325 69.343125 520.1192 69.04137 519.89266 68.81676 C 519.6661 68.59215 519.3321 68.479845 518.8907 68.479845 C 518.504 68.479845 518.1798 68.5775 517.91805 68.772814 C 517.65633 68.96813 517.5255 69.20445 517.5255 69.4818 L 516.4356 69.4818 C 516.4356 69.16539 516.54793 68.85973 516.77254 68.56481 C 516.99715 68.26988 517.30184 68.03649 517.6866 67.86461 C 518.0714 67.692735 518.4942 67.6068 518.95516 67.6068 C 519.68563 67.6068 520.2579 67.78941 520.67196 68.15465 C 521.086 68.51989 521.30086 69.02281 521.3165 69.66344 L 521.3165 72.58141 C 521.3165 73.16344 521.3907 73.62633 521.53915 73.97008 L 521.53915 74.06383 Z M 518.6036 73.23766 C 518.94344 73.23766 519.2657 73.14977 519.5704 72.97399 C 519.8751 72.7982 520.0958 72.56969 520.2325 72.28844 L 520.2325 70.98766 L 519.3829 70.98766 C 518.05476 70.98766 517.3907 71.37633 517.3907 72.15367 C 517.3907 72.49352 517.504 72.75914 517.73055 72.95055 C 517.9571 73.14196 518.2481 73.23766 518.6036 73.23766 Z" fill="#212121"/>
      <path d="M 524.0411 67.72399 L 524.07625 68.52086 C 524.56063 67.91148 525.19344 67.6068 525.9747 67.6068 C 527.31454 67.6068 527.9903 68.36265 528.00204 69.87438 L 528.00204 74.06383 L 526.91805 74.06383 L 526.91805 69.86852 C 526.91415 69.41148 526.80965 69.0736 526.6046 68.854845 C 526.3995 68.636094 526.08016 68.52672 525.64657 68.52672 C 525.295 68.52672 524.9864 68.62047 524.7208 68.80797 C 524.45516 68.99547 524.2481 69.24156 524.0997 69.54625 L 524.0997 74.06383 L 523.0157 74.06383 L 523.0157 67.72399 Z" fill="#212121"/>
      <path d="M 533.55086 73.43688 C 533.129 73.93297 532.50985 74.18102 531.69344 74.18102 C 531.01766 74.18102 530.503 73.98473 530.1495 73.59215 C 529.796 73.19957 529.6173 72.61852 529.61336 71.84899 L 529.61336 67.72399 L 530.69735 67.72399 L 530.69735 71.81969 C 530.69735 72.78063 531.088 73.261095 531.8692 73.261095 C 532.69735 73.261095 533.2481 72.952505 533.52157 72.33531 L 533.52157 67.72399 L 534.60555 67.72399 L 534.60555 74.06383 L 533.5743 74.06383 Z" fill="#212121"/>
      <path d="M 540.1661 74.06383 C 540.1036 73.93883 540.0528 73.716175 540.01375 73.39586 C 539.50985 73.9193 538.9083 74.18102 538.20907 74.18102 C 537.58406 74.18102 537.0714 74.00426 536.671 73.65074 C 536.2706 73.29723 536.0704 72.84899 536.0704 72.30602 C 536.0704 71.64586 536.3214 71.13317 536.8233 70.76793 C 537.3253 70.402695 538.0313 70.22008 538.9415 70.22008 L 539.9962 70.22008 L 539.9962 69.72203 C 539.9962 69.343125 539.8829 69.04137 539.65633 68.81676 C 539.4298 68.59215 539.0958 68.479845 538.6544 68.479845 C 538.26766 68.479845 537.94344 68.5775 537.6817 68.772814 C 537.42 68.96813 537.28915 69.20445 537.28915 69.4818 L 536.1993 69.4818 C 536.1993 69.16539 536.3116 68.85973 536.5362 68.56481 C 536.7608 68.26988 537.0655 68.03649 537.4503 67.86461 C 537.83505 67.692735 538.2579 67.6068 538.71883 67.6068 C 539.4493 67.6068 540.02157 67.78941 540.4356 68.15465 C 540.8497 68.51989 541.06454 69.02281 541.08016 69.66344 L 541.08016 72.58141 C 541.08016 73.16344 541.1544 73.62633 541.3028 73.97008 L 541.3028 74.06383 Z M 538.3673 73.23766 C 538.7071 73.23766 539.0294 73.14977 539.33407 72.97399 C 539.63876 72.7982 539.85946 72.56969 539.9962 72.28844 L 539.9962 70.98766 L 539.14657 70.98766 C 537.81844 70.98766 537.1544 71.37633 537.1544 72.15367 C 537.1544 72.49352 537.26766 72.75914 537.4942 72.95055 C 537.7208 73.14196 538.0118 73.23766 538.3673 73.23766 Z" fill="#212121"/>
      <rect x="542.8731" y="65.06383" width="1.0839844" height="9" fill="#212121"/>
      <path d="M 510.89266 85.83727 L 507.31844 85.83727 L 506.5157 88.06383 L 505.35555 88.06383 L 508.61336 79.53258 L 509.59774 79.53258 L 512.8614 88.06383 L 511.7071 88.06383 Z M 507.6583 84.91149 L 510.5587 84.91149 L 509.10555 80.92125 Z" fill="#212121"/>
      <path d="M 518.94344 84.96422 C 518.94344 85.92907 518.72274 86.7064 518.28133 87.29625 C 517.8399 87.8861 517.2423 88.18102 516.48836 88.18102 C 515.7188 88.18102 515.11337 87.93688 514.67196 87.4486 L 514.67196 90.50133 L 513.588 90.50133 L 513.588 81.72399 L 514.5782 81.72399 L 514.63094 82.42711 C 515.07235 81.88023 515.6856 81.6068 516.4708 81.6068 C 517.2325 81.6068 517.83504 81.893905 518.2784 82.46813 C 518.72177 83.04235 518.94344 83.84117 518.94344 84.86461 Z M 517.85946 84.84117 C 517.85946 84.12633 517.7071 83.56188 517.4024 83.14781 C 517.09774 82.73375 516.6798 82.52672 516.1485 82.52672 C 515.49227 82.52672 515.0001 82.81773 514.67196 83.39977 L 514.67196 86.42906 C 514.9962 87.00719 515.49227 87.29625 516.16024 87.29625 C 516.6798 87.29625 517.09286 87.0902 517.3995 86.67809 C 517.70614 86.26598 517.85946 85.65368 517.85946 84.84117 Z" fill="#212121"/>
      <path d="M 525.67586 84.96422 C 525.67586 85.92907 525.45516 86.7064 525.01375 87.29625 C 524.57235 87.8861 523.9747 88.18102 523.2208 88.18102 C 522.45125 88.18102 521.8458 87.93688 521.4044 87.4486 L 521.4044 90.50133 L 520.3204 90.50133 L 520.3204 81.72399 L 521.3106 81.72399 L 521.36336 82.42711 C 521.8048 81.88023 522.41805 81.6068 523.2032 81.6068 C 523.9649 81.6068 524.56746 81.893905 525.0108 82.46813 C 525.4542 83.04235 525.67586 83.84117 525.67586 84.86461 Z M 524.5919 84.84117 C 524.5919 84.12633 524.43954 83.56188 524.13485 83.14781 C 523.83016 82.73375 523.4122 82.52672 522.88094 82.52672 C 522.2247 82.52672 521.7325 82.81773 521.4044 83.39977 L 521.4044 86.42906 C 521.7286 87.00719 522.2247 87.29625 522.89266 87.29625 C 523.4122 87.29625 523.8253 87.0902 524.1319 86.67809 C 524.43856 86.26598 524.5919 85.65368 524.5919 84.84117 Z" fill="#212121"/>
      <path d="M 530.1173 82.69664 C 529.9532 82.6693 529.7755 82.65563 529.58407 82.65563 C 528.8731 82.65563 528.3907 82.95836 528.1368 83.56383 L 528.1368 88.06383 L 527.0528 88.06383 L 527.0528 81.72399 L 528.1075 81.72399 L 528.1251 82.45641 C 528.48055 81.89 528.98445 81.6068 529.6368 81.6068 C 529.84774 81.6068 530.0079 81.63414 530.1173 81.68883 Z" fill="#212121"/>
      <path d="M 530.62704 84.83531 C 530.62704 84.21422 530.7491 83.65563 530.99325 83.15953 C 531.2374 82.66344 531.5772 82.28063 532.0128 82.0111 C 532.4483 81.74156 532.9454 81.6068 533.504 81.6068 C 534.3673 81.6068 535.0655 81.90562 535.5987 82.50328 C 536.1319 83.10094 536.3985 83.89586 536.3985 84.88805 L 536.3985 84.96422 C 536.3985 85.58141 536.28036 86.13512 536.044 86.62535 C 535.8077 87.11559 535.4698 87.49742 535.03036 87.77086 C 534.5909 88.0443 534.086 88.18102 533.5157 88.18102 C 532.6563 88.18102 531.96005 87.88219 531.42684 87.28453 C 530.89364 86.68687 530.62704 85.89587 530.62704 84.91149 Z M 531.7169 84.96422 C 531.7169 85.66735 531.87996 86.2318 532.20614 86.65758 C 532.5323 87.08336 532.9688 87.29625 533.5157 87.29625 C 534.0665 87.29625 534.504 87.08043 534.8282 86.64879 C 535.1524 86.21715 535.31454 85.61266 535.31454 84.83531 C 535.31454 84.14 535.1495 83.57653 534.8194 83.14488 C 534.48934 82.71324 534.05087 82.49742 533.504 82.49742 C 532.9688 82.49742 532.5372 82.71031 532.20907 83.1361 C 531.88094 83.56188 531.7169 84.17125 531.7169 84.96422 Z" fill="#212121"/>
      <path d="M 539.7618 86.59313 L 541.3321 81.72399 L 542.43954 81.72399 L 540.1661 88.06383 L 539.3399 88.06383 L 537.04305 81.72399 L 538.1505 81.72399 Z" fill="#212121"/>
      <path d="M 547.3087 88.06383 C 547.2462 87.93883 547.1954 87.71618 547.15633 87.39586 C 546.6524 87.9193 546.0509 88.18102 545.35165 88.18102 C 544.72664 88.18102 544.21395 88.00426 543.81356 87.65074 C 543.41317 87.29723 543.213 86.84899 543.213 86.30602 C 543.213 85.64586 543.46395 85.13317 543.9659 84.76793 C 544.46786 84.4027 545.1739 84.22008 546.0841 84.22008 L 547.13875 84.22008 L 547.13875 83.72203 C 547.13875 83.34312 547.0255 83.04137 546.7989 82.81676 C 546.57235 82.59215 546.23837 82.47985 545.79696 82.47985 C 545.41024 82.47985 545.086 82.5775 544.8243 82.77281 C 544.5626 82.96813 544.4317 83.20445 544.4317 83.4818 L 543.3419 83.4818 C 543.3419 83.16539 543.4542 82.85973 543.6788 82.56481 C 543.9034 82.26988 544.2081 82.03649 544.59286 81.86461 C 544.9776 81.69274 545.4005 81.6068 545.8614 81.6068 C 546.5919 81.6068 547.16414 81.78941 547.5782 82.15465 C 547.9923 82.51989 548.2071 83.02281 548.22274 83.66344 L 548.22274 86.58141 C 548.22274 87.16344 548.29696 87.62633 548.4454 87.97008 L 548.4454 88.06383 Z M 545.50985 87.23766 C 545.8497 87.23766 546.17196 87.14977 546.47665 86.97399 C 546.78133 86.7982 547.00204 86.56969 547.13875 86.28844 L 547.13875 84.98766 L 546.28915 84.98766 C 544.961 84.98766 544.29696 85.37633 544.29696 86.15367 C 544.29696 86.49352 544.41024 86.75914 544.6368 86.95055 C 544.86337 87.14196 545.1544 87.23766 545.50985 87.23766 Z" fill="#212121"/>
      <rect x="550.0157" y="79.06383" width="1.0839844" height="9" fill="#212121"/>
      <path d="M 634.50925 74.06383 L 634.50925 65.53258 L 636.91745 65.53258 C 637.65964 65.53258 638.3159 65.69664 638.8862 66.02477 C 639.4565 66.35289 639.89694 66.81969 640.2075 67.42516 C 640.51804 68.03063 640.6753 68.725935 640.6792 69.511095 L 640.6792 70.05602 C 640.6792 70.86071 640.5239 71.56578 640.21335 72.17125 C 639.9028 72.77672 639.45945 73.24156 638.8833 73.56578 C 638.3071 73.89 637.6362 74.05602 636.8706 74.06383 Z M 635.63425 66.45836 L 635.63425 73.14391 L 636.81784 73.14391 C 637.685 73.14391 638.3598 72.87438 638.84226 72.33531 C 639.3247 71.79625 639.5659 71.02868 639.5659 70.03258 L 639.5659 69.53453 C 639.5659 68.56578 639.33835 67.812856 638.8833 67.27574 C 638.4282 66.73863 637.7827 66.46617 636.94675 66.45836 Z" fill="#212121"/>
      <path d="M 644.8393 74.18102 C 643.97995 74.18102 643.2807 73.89879 642.7417 73.33434 C 642.2026 72.76988 641.9331 72.01501 641.9331 71.06969 L 641.9331 70.87047 C 641.9331 70.24156 642.0532 69.68004 642.2934 69.1859 C 642.5337 68.69176 642.8696 68.30504 643.30124 68.02574 C 643.7329 67.746446 644.20065 67.6068 644.7046 67.6068 C 645.5288 67.6068 646.1694 67.87828 646.6264 68.42125 C 647.0835 68.96422 647.312 69.74156 647.312 70.75328 L 647.312 71.204455 L 643.0171 71.204455 C 643.0327 71.82946 643.2153 72.334336 643.5649 72.7191 C 643.9145 73.10387 644.35886 73.29625 644.8979 73.29625 C 645.2807 73.29625 645.60495 73.21813 645.8706 73.06188 C 646.1362 72.90563 646.3686 72.6986 646.56784 72.44078 L 647.22995 72.95641 C 646.6987 73.77282 645.9018 74.18102 644.8393 74.18102 Z M 644.7046 68.49742 C 644.26706 68.49742 643.8999 68.6566 643.603 68.97496 C 643.3061 69.29332 643.1225 69.73961 643.0522 70.31383 L 646.228 70.31383 L 646.228 70.2318 C 646.19675 69.681015 646.0483 69.25426 645.7827 68.951525 C 645.51706 68.64879 645.1577 68.49742 644.7046 68.49742 Z" fill="#212121"/>
      <path d="M 653.92136 70.96422 C 653.92136 71.92907 653.70066 72.706405 653.25925 73.29625 C 652.81784 73.8861 652.2202 74.18102 651.4663 74.18102 C 650.69675 74.18102 650.0913 73.93688 649.6499 73.448595 L 649.6499 76.50133 L 648.5659 76.50133 L 648.5659 67.72399 L 649.5561 67.72399 L 649.60886 68.42711 C 650.0503 67.88023 650.66354 67.6068 651.4487 67.6068 C 652.2104 67.6068 652.81296 67.893905 653.2563 68.46813 C 653.6997 69.04235 653.92136 69.84117 653.92136 70.86461 Z M 652.8374 70.84117 C 652.8374 70.12633 652.685 69.56188 652.38034 69.147814 C 652.07565 68.73375 651.6577 68.52672 651.1264 68.52672 C 650.4702 68.52672 649.978 68.81773 649.6499 69.39977 L 649.6499 72.42906 C 649.9741 73.00719 650.4702 73.29625 651.13816 73.29625 C 651.6577 73.29625 652.0708 73.0902 652.3774 72.67809 C 652.68406 72.26598 652.8374 71.65368 652.8374 70.84117 Z" fill="#212121"/>
      <rect x="655.3921" y="65.06383" width="1.0839844" height="9" fill="#212121"/>
      <path d="M 657.9233 70.83531 C 657.9233 70.21422 658.0454 69.65563 658.2895 69.15953 C 658.5337 68.66344 658.8735 68.28063 659.30905 68.011095 C 659.7446 67.74156 660.2417 67.6068 660.8003 67.6068 C 661.66355 67.6068 662.3618 67.90562 662.895 68.50328 C 663.4282 69.10094 663.6948 69.89586 663.6948 70.88805 L 663.6948 70.96422 C 663.6948 71.58141 663.5766 72.13512 663.3403 72.62535 C 663.104 73.11559 662.7661 73.49742 662.3266 73.77086 C 661.8872 74.0443 661.3823 74.18102 660.812 74.18102 C 659.9526 74.18102 659.2563 73.88219 658.7231 73.28453 C 658.1899 72.68687 657.9233 71.89587 657.9233 70.91149 Z M 659.01316 70.96422 C 659.01316 71.66735 659.17624 72.2318 659.5024 72.65758 C 659.8286 73.08336 660.2651 73.29625 660.812 73.29625 C 661.3628 73.29625 661.8003 73.08043 662.1245 72.64879 C 662.4487 72.21715 662.6108 71.61266 662.6108 70.83531 C 662.6108 70.14 662.4458 69.57653 662.1157 69.144884 C 661.7856 68.71324 661.34714 68.49742 660.8003 68.49742 C 660.2651 68.49742 659.8335 68.71031 659.50534 69.136095 C 659.1772 69.56188 659.01316 70.17125 659.01316 70.96422 Z" fill="#212121"/>
      <path d="M 667.0405 72.47594 L 668.5171 67.72399 L 669.6772 67.72399 L 667.1284 75.042345 C 666.73386 76.09704 666.1069 76.62438 665.2475 76.62438 L 665.04245 76.6068 L 664.63816 76.53063 L 664.63816 75.65172 L 664.9311 75.67516 C 665.2983 75.67516 665.58444 75.60094 665.7895 75.4525 C 665.9946 75.30406 666.16355 75.03258 666.29636 74.63805 L 666.5366 73.99352 L 664.2749 67.72399 L 665.4585 67.72399 Z" fill="#212121"/>
      <path d="M 675.0854 66.18883 L 675.0854 67.72399 L 676.269 67.72399 L 676.269 68.56188 L 675.0854 68.56188 L 675.0854 72.49352 C 675.0854 72.747425 675.13816 72.93785 675.2436 73.06481 C 675.3491 73.19176 675.5288 73.25524 675.7827 73.25524 C 675.9077 73.25524 676.0796 73.2318 676.2983 73.18492 L 676.2983 74.06383 C 676.01316 74.141955 675.7358 74.18102 675.4663 74.18102 C 674.9819 74.18102 674.6167 74.03453 674.3706 73.74156 C 674.1245 73.44859 674.0014 73.03258 674.0014 72.49352 L 674.0014 68.56188 L 672.84714 68.56188 L 672.84714 67.72399 L 674.0014 67.72399 L 674.0014 66.18883 Z" fill="#212121"/>
      <path d="M 677.0776 70.83531 C 677.0776 70.21422 677.1997 69.65563 677.4438 69.15953 C 677.688 68.66344 678.0278 68.28063 678.46335 68.011095 C 678.8989 67.74156 679.396 67.6068 679.9546 67.6068 C 680.81785 67.6068 681.5161 67.90562 682.0493 68.50328 C 682.5825 69.10094 682.8491 69.89586 682.8491 70.88805 L 682.8491 70.96422 C 682.8491 71.58141 682.7309 72.13512 682.4946 72.62535 C 682.2583 73.11559 681.9204 73.49742 681.4809 73.77086 C 681.0415 74.0443 680.5366 74.18102 679.9663 74.18102 C 679.1069 74.18102 678.4106 73.88219 677.8774 73.28453 C 677.3442 72.68687 677.0776 71.89587 677.0776 70.91149 Z M 678.16745 70.96422 C 678.16745 71.66735 678.3305 72.2318 678.6567 72.65758 C 678.9829 73.08336 679.4194 73.29625 679.9663 73.29625 C 680.5171 73.29625 680.9546 73.08043 681.2788 72.64879 C 681.603 72.21715 681.7651 71.61266 681.7651 70.83531 C 681.7651 70.14 681.6001 69.57653 681.27 69.144884 C 680.9399 68.71324 680.5014 68.49742 679.9546 68.49742 C 679.4194 68.49742 678.9878 68.71031 678.65964 69.136095 C 678.3315 69.56188 678.16745 70.17125 678.16745 70.96422 Z" fill="#212121"/>
      <path d="M 631.45066 84.72399 L 631.45066 88.06383 L 630.32566 88.06383 L 630.32566 79.53258 L 633.47214 79.53258 C 634.40574 79.53258 635.1372 79.77086 635.6665 80.24742 C 636.1958 80.72399 636.4604 81.35484 636.4604 82.14 C 636.4604 82.96813 636.2016 83.60582 635.68405 84.05309 C 635.1665 84.50036 634.4253 84.72399 633.4604 84.72399 Z M 631.45066 83.80406 L 633.47214 83.80406 C 634.0737 83.80406 634.53464 83.66246 634.85495 83.37926 C 635.1753 83.09605 635.3354 82.68688 635.3354 82.15172 C 635.3354 81.64391 635.1753 81.23766 634.85495 80.93297 C 634.53464 80.62828 634.0952 80.47008 633.5366 80.45836 L 631.45066 80.45836 Z" fill="#212121"/>
      <path d="M 640.7905 82.69664 C 640.6264 82.6693 640.4487 82.65563 640.2573 82.65563 C 639.54636 82.65563 639.06394 82.95836 638.81 83.56383 L 638.81 88.06383 L 637.72605 88.06383 L 637.72605 81.72399 L 638.7807 81.72399 L 638.7983 82.45641 C 639.1538 81.89 639.6577 81.6068 640.31 81.6068 C 640.521 81.6068 640.6811 81.63414 640.7905 81.68883 Z" fill="#212121"/>
      <path d="M 641.3003 84.83531 C 641.3003 84.21422 641.4223 83.65563 641.6665 83.15953 C 641.9106 82.66344 642.25046 82.28063 642.686 82.0111 C 643.12156 81.74156 643.6186 81.6068 644.1772 81.6068 C 645.0405 81.6068 645.73874 81.90562 646.27195 82.50328 C 646.80515 83.10094 647.07175 83.89586 647.07175 84.88805 L 647.07175 84.96422 C 647.07175 85.58141 646.9536 86.13512 646.71726 86.62535 C 646.4809 87.11559 646.14304 87.49742 645.7036 87.77086 C 645.2641 88.0443 644.75925 88.18102 644.1889 88.18102 C 643.32956 88.18102 642.6333 87.88219 642.1001 87.28453 C 641.5669 86.68687 641.3003 85.89587 641.3003 84.91149 Z M 642.3901 84.96422 C 642.3901 85.66735 642.5532 86.2318 642.8794 86.65758 C 643.20554 87.08336 643.64206 87.29625 644.1889 87.29625 C 644.7397 87.29625 645.1772 87.08043 645.5014 86.64879 C 645.82566 86.21715 645.9878 85.61266 645.9878 84.83531 C 645.9878 84.14 645.8227 83.57653 645.49265 83.14488 C 645.1626 82.71324 644.7241 82.49742 644.1772 82.49742 C 643.64206 82.49742 643.2104 82.71031 642.8823 83.1361 C 642.5542 83.56188 642.3901 84.17125 642.3901 84.96422 Z" fill="#212121"/>
      <path d="M 648.16745 84.84117 C 648.16745 83.86851 648.3979 83.08629 648.85886 82.49449 C 649.3198 81.90269 649.9233 81.6068 650.6694 81.6068 C 651.4116 81.6068 651.9995 81.8607 652.4331 82.36852 L 652.4331 79.06383 L 653.5171 79.06383 L 653.5171 88.06383 L 652.521 88.06383 L 652.4682 87.38414 C 652.0346 87.9154 651.4311 88.18102 650.6577 88.18102 C 649.9233 88.18102 649.3247 87.88024 648.8618 87.27867 C 648.3989 86.67711 648.16745 85.89196 648.16745 84.9232 Z M 649.2514 84.96422 C 649.2514 85.68297 649.3999 86.24547 649.69675 86.65172 C 649.9936 87.05797 650.4038 87.2611 650.9272 87.2611 C 651.6147 87.2611 652.1167 86.9525 652.4331 86.33531 L 652.4331 83.4232 C 652.10886 82.82555 651.6108 82.52672 650.9389 82.52672 C 650.4077 82.52672 649.9936 82.7318 649.69675 83.14195 C 649.3999 83.55211 649.2514 84.15953 649.2514 84.96422 Z" fill="#212121"/>
      <path d="M 659.1128 87.43688 C 658.6909 87.93297 658.07175 88.18102 657.25534 88.18102 C 656.57956 88.18102 656.0649 87.98473 655.7114 87.59215 C 655.3579 87.19957 655.1792 86.61852 655.1753 85.84899 L 655.1753 81.72399 L 656.25925 81.72399 L 656.25925 85.81969 C 656.25925 86.78063 656.6499 87.2611 657.4311 87.2611 C 658.25925 87.2611 658.81 86.9525 659.0835 86.33531 L 659.0835 81.72399 L 660.16745 81.72399 L 660.16745 88.06383 L 659.1362 88.06383 Z" fill="#212121"/>
      <path d="M 664.3569 87.29625 C 664.7436 87.29625 665.0815 87.17907 665.3706 86.94469 C 665.65964 86.71031 665.8198 86.41735 665.85105 86.06578 L 666.8764 86.06578 C 666.8569 86.42907 666.7319 86.77477 666.5014 87.10289 C 666.271 87.43102 665.96335 87.69274 665.5786 87.88805 C 665.1938 88.08336 664.7866 88.18102 664.3569 88.18102 C 663.4936 88.18102 662.8071 87.89293 662.2973 87.31676 C 661.7876 86.74058 661.5327 85.95251 661.5327 84.9525 L 661.5327 84.77086 C 661.5327 84.15367 661.646 83.60485 661.8725 83.12438 C 662.0991 82.64391 662.4243 82.27086 662.8481 82.00524 C 663.27195 81.73961 663.7729 81.6068 664.35105 81.6068 C 665.062 81.6068 665.6528 81.81969 666.1235 82.24547 C 666.5942 82.67125 666.8452 83.22398 666.8764 83.90367 L 665.85105 83.90367 C 665.8198 83.49352 665.6645 83.1566 665.3852 82.89293 C 665.1059 82.62926 664.7612 82.49742 664.35105 82.49742 C 663.8003 82.49742 663.3735 82.69566 663.0708 83.09215 C 662.768 83.48864 662.6167 84.06187 662.6167 84.81188 L 662.6167 85.01695 C 662.6167 85.74743 662.7671 86.30992 663.06784 86.70445 C 663.3686 87.09899 663.7983 87.29625 664.3569 87.29625 Z" fill="#212121"/>
      <path d="M 669.5659 80.18883 L 669.5659 81.72399 L 670.7495 81.72399 L 670.7495 82.56188 L 669.5659 82.56188 L 669.5659 86.49352 C 669.5659 86.74742 669.6186 86.93785 669.7241 87.06481 C 669.8296 87.19176 670.00925 87.25524 670.26316 87.25524 C 670.38816 87.25524 670.56 87.2318 670.7788 87.18492 L 670.7788 88.06383 C 670.4936 88.14196 670.2163 88.18102 669.94675 88.18102 C 669.4624 88.18102 669.09714 88.03453 668.85105 87.74156 C 668.60495 87.44859 668.4819 87.03258 668.4819 86.49352 L 668.4819 82.56188 L 667.3276 82.56188 L 667.3276 81.72399 L 668.4819 81.72399 L 668.4819 80.18883 Z" fill="#212121"/>
      <path d="M 673.19284 88.06383 L 672.10886 88.06383 L 672.10886 81.72399 L 673.19284 81.72399 Z M 672.021 80.04235 C 672.021 79.86656 672.0747 79.71813 672.1821 79.59703 C 672.2895 79.47594 672.4487 79.41539 672.65964 79.41539 C 672.8706 79.41539 673.0307 79.47594 673.1401 79.59703 C 673.2495 79.71813 673.3042 79.86656 673.3042 80.04235 C 673.3042 80.21813 673.2495 80.36461 673.1401 80.4818 C 673.0307 80.59899 672.8706 80.65758 672.65964 80.65758 C 672.4487 80.65758 672.2895 80.59899 672.1821 80.4818 C 672.0747 80.36461 672.021 80.21813 672.021 80.04235 Z" fill="#212121"/>
      <path d="M 674.6401 84.83531 C 674.6401 84.21422 674.7622 83.65563 675.0063 83.15953 C 675.2505 82.66344 675.5903 82.28063 676.02585 82.0111 C 676.4614 81.74156 676.9585 81.6068 677.5171 81.6068 C 678.38035 81.6068 679.0786 81.90562 679.6118 82.50328 C 680.145 83.10094 680.4116 83.89586 680.4116 84.88805 L 680.4116 84.96422 C 680.4116 85.58141 680.2934 86.13512 680.0571 86.62535 C 679.8208 87.11559 679.4829 87.49742 679.0434 87.77086 C 678.604 88.0443 678.0991 88.18102 677.5288 88.18102 C 676.6694 88.18102 675.9731 87.88219 675.4399 87.28453 C 674.9067 86.68687 674.6401 85.89587 674.6401 84.91149 Z M 675.72995 84.96422 C 675.72995 85.66735 675.893 86.2318 676.2192 86.65758 C 676.5454 87.08336 676.9819 87.29625 677.5288 87.29625 C 678.0796 87.29625 678.5171 87.08043 678.8413 86.64879 C 679.1655 86.21715 679.3276 85.61266 679.3276 84.83531 C 679.3276 84.14 679.1626 83.57653 678.8325 83.14488 C 678.5024 82.71324 678.06394 82.49742 677.5171 82.49742 C 676.9819 82.49742 676.5503 82.71031 676.22214 83.1361 C 675.894 83.56188 675.72995 84.17125 675.72995 84.96422 Z" fill="#212121"/>
      <path d="M 682.7964 81.72399 L 682.8315 82.52086 C 683.3159 81.91148 683.9487 81.6068 684.72995 81.6068 C 686.0698 81.6068 686.7456 82.36265 686.7573 83.87438 L 686.7573 88.06383 L 685.6733 88.06383 L 685.6733 83.86852 C 685.6694 83.41148 685.5649 83.0736 685.3598 82.85485 C 685.15476 82.63609 684.8354 82.52672 684.4018 82.52672 C 684.0503 82.52672 683.7417 82.62047 683.47605 82.80797 C 683.2104 82.99547 683.0034 83.24156 682.85495 83.54625 L 682.85495 88.06383 L 681.771 88.06383 L 681.771 81.72399 Z" fill="#212121"/>
    </g>
  </g>
</svg>
